<mxfile type="device" compressed="false">
    <diagram id="Network Topology" name="Network Topology">
          <mxGraphModel dx="1360" dy="864" grid="0" gridSize="10" guides="1" tooltips="1" connect="1" arrows="1" fold="1" page="1" pageScale="1" pageWidth="1100.0" pageHeight="375.0" math="0" shadow="0" background="none">
            <root>
              <mxCell id="0" />   
              <mxCell id="1" parent="0" />
            <object id="leaf1" label="leaf1">
      <mxCell style="shape=image;imageAlign=center;imageVerticalAlign=middle;labelPosition=left;align=right;verticalLabelPosition=top;spacingLeft=0;verticalAlign=bottom;spacingTop=0;spacing=0;editableCssRules=\.st[0-2]$;labelBackgroundColor=none;aspect=fixed;imageAspect=0;image=data:image/svg+xml,PHN2ZyB4bWxuczp4bGluaz0iaHR0cDovL3d3dy53My5vcmcvMTk5OS94bGluayIgeG1sbnM9Imh0dHA6Ly93d3cudzMub3JnLzIwMDAvc3ZnIiB4bWw6c3BhY2U9InByZXNlcnZlIiBzdHlsZT0iZW5hYmxlLWJhY2tncm91bmQ6bmV3IDAgMCAxMjAgMTIwO2VkaXRhYmxlQ3NzUnVsZXM9Lio7IiB2aWV3Qm94PSIwIDAgMTIwIDEyMCIgeT0iMHB4IiB4PSIwcHgiIGlkPSJMYXllcl8xIiB2ZXJzaW9uPSIxLjEiPiYjeGE7PHN0eWxlIHR5cGU9InRleHQvY3NzIj4mI3hhOwkuc3Qwe2ZpbGw6IzAwMTEzNTt9JiN4YTsJLnN0MXtmaWxsOm5vbmU7c3Ryb2tlOiNGRkZGRkY7c3Ryb2tlLXdpZHRoOjQ7c3Ryb2tlLWxpbmVjYXA6cm91bmQ7c3Ryb2tlLWxpbmVqb2luOnJvdW5kO3N0cm9rZS1taXRlcmxpbWl0OjEwO30mI3hhOwkuc3Qye2ZpbGw6I0ZGRkZGRjt9JiN4YTsJLnN0M3tmaWxsOm5vbmU7c3Ryb2tlOiNGRkZGRkY7c3Ryb2tlLXdpZHRoOjQ7c3Ryb2tlLW1pdGVybGltaXQ6MTA7fSYjeGE7CS5zdDR7ZmlsbDpub25lO3N0cm9rZTojRkZGRkZGO3N0cm9rZS13aWR0aDo0O3N0cm9rZS1saW5lY2FwOnJvdW5kO3N0cm9rZS1saW5lam9pbjpyb3VuZDt9JiN4YTsJLnN0NXtmaWxsOiNGRkZGRkY7c3Ryb2tlOiNGRkZGRkY7c3Ryb2tlLXdpZHRoOjQ7c3Ryb2tlLWxpbmVjYXA6cm91bmQ7c3Ryb2tlLWxpbmVqb2luOnJvdW5kO3N0cm9rZS1taXRlcmxpbWl0OjEwO30mI3hhOwkuc3Q2e2ZpbGw6bm9uZTtzdHJva2U6I0ZGRkZGRjtzdHJva2Utd2lkdGg6NC4yMzMzO3N0cm9rZS1saW5lY2FwOnJvdW5kO3N0cm9rZS1saW5lam9pbjpyb3VuZDtzdHJva2UtbWl0ZXJsaW1pdDoxMDt9JiN4YTsJLnN0N3tmaWxsOm5vbmU7c3Ryb2tlOiNGRkZGRkY7c3Ryb2tlLXdpZHRoOjQ7c3Ryb2tlLWxpbmVjYXA6cm91bmQ7c3Ryb2tlLW1pdGVybGltaXQ6MTA7fSYjeGE7CS5zdDh7ZmlsbDojRkZGRkZGO3N0cm9rZTojRkZGRkZGO3N0cm9rZS13aWR0aDo0O3N0cm9rZS1taXRlcmxpbWl0OjEwO30mI3hhOwkuc3Q5e2ZpbGw6I0ZGRkZGRjtzdHJva2U6I0ZGRkZGRjtzdHJva2Utd2lkdGg6NDt9JiN4YTsJLnN0MTB7ZmlsbDpub25lO3N0cm9rZTojRkZGRkZGO3N0cm9rZS13aWR0aDo0O30mI3hhOwkuc3QxMXtmaWxsOiMyNjI2MjY7c3Ryb2tlOiNGRkZGRkY7c3Ryb2tlLXdpZHRoOjQuMjMzMzt9JiN4YTsJLnN0MTJ7ZmlsbC1ydWxlOmV2ZW5vZGQ7Y2xpcC1ydWxlOmV2ZW5vZGQ7ZmlsbDpub25lO3N0cm9rZTojRkZGRkZGO3N0cm9rZS13aWR0aDo0O3N0cm9rZS1taXRlcmxpbWl0OjEwO30mI3hhOwkuc3QxM3tmaWxsLXJ1bGU6ZXZlbm9kZDtjbGlwLXJ1bGU6ZXZlbm9kZDtmaWxsOiNGRkZGRkY7c3Ryb2tlOiNGRkZGRkY7c3Ryb2tlLXdpZHRoOjQ7fSYjeGE7CS5zdDE0e2ZpbGw6bm9uZTtzdHJva2U6I0ZGRkZGRjtzdHJva2Utd2lkdGg6NC4yMzMzO3N0cm9rZS1saW5lY2FwOnJvdW5kO3N0cm9rZS1saW5lam9pbjpyb3VuZDt9JiN4YTsJLnN0MTV7ZmlsbDpub25lO3N0cm9rZTojRkZGRkZGO3N0cm9rZS13aWR0aDo0O3N0cm9rZS1saW5lY2FwOnJvdW5kO30mI3hhOwkuc3QxNntmaWxsOiNGRkZGRkY7c3Ryb2tlOiNGRkZGRkY7c3Ryb2tlLW1pdGVybGltaXQ6MTA7fSYjeGE7CS5zdDE3e2ZpbGw6IzI2MjYyNjtzdHJva2U6I0ZGRkZGRjtzdHJva2Utd2lkdGg6NDtzdHJva2UtbWl0ZXJsaW1pdDoxMDt9JiN4YTsJLnN0MTh7ZmlsbDojRkZGRkZGO3N0cm9rZTojRkZGRkZGO3N0cm9rZS13aWR0aDo0O3N0cm9rZS1saW5lY2FwOnJvdW5kO3N0cm9rZS1saW5lam9pbjpyb3VuZDt9JiN4YTs8L3N0eWxlPiYjeGE7PHJlY3QgaGVpZ2h0PSIxMjAiIHdpZHRoPSIxMjAiIGNsYXNzPSJzdDAiLz4mI3hhOzxnPiYjeGE7CTxnPiYjeGE7CQk8cGF0aCBkPSJNNzEuNywxOS43VjQ4aDI4IiBjbGFzcz0ic3QxIi8+JiN4YTsJCTxwYXRoIGQ9Ik05MS4yLDM4LjVsNy41LDcuNmMxLjMsMS4zLDEuMywzLjEsMCw0LjNMOTEuMSw1OCIgY2xhc3M9InN0MSIvPiYjeGE7CTwvZz4mI3hhOwk8Zz4mI3hhOwkJPHBhdGggZD0iTTIwLDQ3LjhoMjguNHYtMjgiIGNsYXNzPSJzdDEiLz4mI3hhOwkJPHBhdGggZD0iTTM4LjgsMjguM2w3LjYtNy41YzEuMy0xLjMsMy4xLTEuMyw0LjMsMGw3LjcsNy42IiBjbGFzcz0ic3QxIi8+JiN4YTsJPC9nPiYjeGE7CTxnPiYjeGE7CQk8cGF0aCBkPSJNNDgsMTAwLjNWNzJIMjAiIGNsYXNzPSJzdDEiLz4mI3hhOwkJPHBhdGggZD0iTTI4LjUsODEuNUwyMSw3My45Yy0xLjMtMS4zLTEuMy0zLjEsMC00LjNsNy42LTcuNyIgY2xhc3M9InN0MSIvPiYjeGE7CTwvZz4mI3hhOwk8Zz4mI3hhOwkJPHBhdGggZD0iTTEwMCw3MS45SDcxLjZ2MjgiIGNsYXNzPSJzdDEiLz4mI3hhOwkJPHBhdGggZD0iTTgxLjIsOTEuNGwtNy42LDcuNWMtMS4zLDEuMy0zLjEsMS4zLTQuMywwbC03LjctNy42IiBjbGFzcz0ic3QxIi8+JiN4YTsJPC9nPiYjeGE7PC9nPiYjeGE7PC9zdmc+;" vertex="1" parent="1">
          <mxGeometry x="400.0" y="175.0" width="75" height="75" as="geometry" />
      </mxCell>
    </object><object id="leaf2" label="leaf2">
      <mxCell style="shape=image;imageAlign=center;imageVerticalAlign=middle;labelPosition=left;align=right;verticalLabelPosition=top;spacingLeft=0;verticalAlign=bottom;spacingTop=0;spacing=0;editableCssRules=\.st[0-2]$;labelBackgroundColor=none;aspect=fixed;imageAspect=0;image=data:image/svg+xml,PHN2ZyB4bWxuczp4bGluaz0iaHR0cDovL3d3dy53My5vcmcvMTk5OS94bGluayIgeG1sbnM9Imh0dHA6Ly93d3cudzMub3JnLzIwMDAvc3ZnIiB4bWw6c3BhY2U9InByZXNlcnZlIiBzdHlsZT0iZW5hYmxlLWJhY2tncm91bmQ6bmV3IDAgMCAxMjAgMTIwO2VkaXRhYmxlQ3NzUnVsZXM9Lio7IiB2aWV3Qm94PSIwIDAgMTIwIDEyMCIgeT0iMHB4IiB4PSIwcHgiIGlkPSJMYXllcl8xIiB2ZXJzaW9uPSIxLjEiPiYjeGE7PHN0eWxlIHR5cGU9InRleHQvY3NzIj4mI3hhOwkuc3Qwe2ZpbGw6IzAwMTEzNTt9JiN4YTsJLnN0MXtmaWxsOm5vbmU7c3Ryb2tlOiNGRkZGRkY7c3Ryb2tlLXdpZHRoOjQ7c3Ryb2tlLWxpbmVjYXA6cm91bmQ7c3Ryb2tlLWxpbmVqb2luOnJvdW5kO3N0cm9rZS1taXRlcmxpbWl0OjEwO30mI3hhOwkuc3Qye2ZpbGw6I0ZGRkZGRjt9JiN4YTsJLnN0M3tmaWxsOm5vbmU7c3Ryb2tlOiNGRkZGRkY7c3Ryb2tlLXdpZHRoOjQ7c3Ryb2tlLW1pdGVybGltaXQ6MTA7fSYjeGE7CS5zdDR7ZmlsbDpub25lO3N0cm9rZTojRkZGRkZGO3N0cm9rZS13aWR0aDo0O3N0cm9rZS1saW5lY2FwOnJvdW5kO3N0cm9rZS1saW5lam9pbjpyb3VuZDt9JiN4YTsJLnN0NXtmaWxsOiNGRkZGRkY7c3Ryb2tlOiNGRkZGRkY7c3Ryb2tlLXdpZHRoOjQ7c3Ryb2tlLWxpbmVjYXA6cm91bmQ7c3Ryb2tlLWxpbmVqb2luOnJvdW5kO3N0cm9rZS1taXRlcmxpbWl0OjEwO30mI3hhOwkuc3Q2e2ZpbGw6bm9uZTtzdHJva2U6I0ZGRkZGRjtzdHJva2Utd2lkdGg6NC4yMzMzO3N0cm9rZS1saW5lY2FwOnJvdW5kO3N0cm9rZS1saW5lam9pbjpyb3VuZDtzdHJva2UtbWl0ZXJsaW1pdDoxMDt9JiN4YTsJLnN0N3tmaWxsOm5vbmU7c3Ryb2tlOiNGRkZGRkY7c3Ryb2tlLXdpZHRoOjQ7c3Ryb2tlLWxpbmVjYXA6cm91bmQ7c3Ryb2tlLW1pdGVybGltaXQ6MTA7fSYjeGE7CS5zdDh7ZmlsbDojRkZGRkZGO3N0cm9rZTojRkZGRkZGO3N0cm9rZS13aWR0aDo0O3N0cm9rZS1taXRlcmxpbWl0OjEwO30mI3hhOwkuc3Q5e2ZpbGw6I0ZGRkZGRjtzdHJva2U6I0ZGRkZGRjtzdHJva2Utd2lkdGg6NDt9JiN4YTsJLnN0MTB7ZmlsbDpub25lO3N0cm9rZTojRkZGRkZGO3N0cm9rZS13aWR0aDo0O30mI3hhOwkuc3QxMXtmaWxsOiMyNjI2MjY7c3Ryb2tlOiNGRkZGRkY7c3Ryb2tlLXdpZHRoOjQuMjMzMzt9JiN4YTsJLnN0MTJ7ZmlsbC1ydWxlOmV2ZW5vZGQ7Y2xpcC1ydWxlOmV2ZW5vZGQ7ZmlsbDpub25lO3N0cm9rZTojRkZGRkZGO3N0cm9rZS13aWR0aDo0O3N0cm9rZS1taXRlcmxpbWl0OjEwO30mI3hhOwkuc3QxM3tmaWxsLXJ1bGU6ZXZlbm9kZDtjbGlwLXJ1bGU6ZXZlbm9kZDtmaWxsOiNGRkZGRkY7c3Ryb2tlOiNGRkZGRkY7c3Ryb2tlLXdpZHRoOjQ7fSYjeGE7CS5zdDE0e2ZpbGw6bm9uZTtzdHJva2U6I0ZGRkZGRjtzdHJva2Utd2lkdGg6NC4yMzMzO3N0cm9rZS1saW5lY2FwOnJvdW5kO3N0cm9rZS1saW5lam9pbjpyb3VuZDt9JiN4YTsJLnN0MTV7ZmlsbDpub25lO3N0cm9rZTojRkZGRkZGO3N0cm9rZS13aWR0aDo0O3N0cm9rZS1saW5lY2FwOnJvdW5kO30mI3hhOwkuc3QxNntmaWxsOiNGRkZGRkY7c3Ryb2tlOiNGRkZGRkY7c3Ryb2tlLW1pdGVybGltaXQ6MTA7fSYjeGE7CS5zdDE3e2ZpbGw6IzI2MjYyNjtzdHJva2U6I0ZGRkZGRjtzdHJva2Utd2lkdGg6NDtzdHJva2UtbWl0ZXJsaW1pdDoxMDt9JiN4YTsJLnN0MTh7ZmlsbDojRkZGRkZGO3N0cm9rZTojRkZGRkZGO3N0cm9rZS13aWR0aDo0O3N0cm9rZS1saW5lY2FwOnJvdW5kO3N0cm9rZS1saW5lam9pbjpyb3VuZDt9JiN4YTs8L3N0eWxlPiYjeGE7PHJlY3QgaGVpZ2h0PSIxMjAiIHdpZHRoPSIxMjAiIGNsYXNzPSJzdDAiLz4mI3hhOzxnPiYjeGE7CTxnPiYjeGE7CQk8cGF0aCBkPSJNNzEuNywxOS43VjQ4aDI4IiBjbGFzcz0ic3QxIi8+JiN4YTsJCTxwYXRoIGQ9Ik05MS4yLDM4LjVsNy41LDcuNmMxLjMsMS4zLDEuMywzLjEsMCw0LjNMOTEuMSw1OCIgY2xhc3M9InN0MSIvPiYjeGE7CTwvZz4mI3hhOwk8Zz4mI3hhOwkJPHBhdGggZD0iTTIwLDQ3LjhoMjguNHYtMjgiIGNsYXNzPSJzdDEiLz4mI3hhOwkJPHBhdGggZD0iTTM4LjgsMjguM2w3LjYtNy41YzEuMy0xLjMsMy4xLTEuMyw0LjMsMGw3LjcsNy42IiBjbGFzcz0ic3QxIi8+JiN4YTsJPC9nPiYjeGE7CTxnPiYjeGE7CQk8cGF0aCBkPSJNNDgsMTAwLjNWNzJIMjAiIGNsYXNzPSJzdDEiLz4mI3hhOwkJPHBhdGggZD0iTTI4LjUsODEuNUwyMSw3My45Yy0xLjMtMS4zLTEuMy0zLjEsMC00LjNsNy42LTcuNyIgY2xhc3M9InN0MSIvPiYjeGE7CTwvZz4mI3hhOwk8Zz4mI3hhOwkJPHBhdGggZD0iTTEwMCw3MS45SDcxLjZ2MjgiIGNsYXNzPSJzdDEiLz4mI3hhOwkJPHBhdGggZD0iTTgxLjIsOTEuNGwtNy42LDcuNWMtMS4zLDEuMy0zLjEsMS4zLTQuMywwbC03LjctNy42IiBjbGFzcz0ic3QxIi8+JiN4YTsJPC9nPiYjeGE7PC9nPiYjeGE7PC9zdmc+;" vertex="1" parent="1">
          <mxGeometry x="850.0" y="275.0" width="75" height="75" as="geometry" />
      </mxCell>
    </object><object id="spine1" label="spine1">
      <mxCell style="shape=image;imageAlign=center;imageVerticalAlign=middle;labelPosition=left;align=right;verticalLabelPosition=top;spacingLeft=0;verticalAlign=bottom;spacingTop=0;spacing=0;editableCssRules=\.st[0-2]$;labelBackgroundColor=none;aspect=fixed;imageAspect=0;image=data:image/svg+xml,PHN2ZyB4bWxuczp4bGluaz0iaHR0cDovL3d3dy53My5vcmcvMTk5OS94bGluayIgeG1sbnM9Imh0dHA6Ly93d3cudzMub3JnLzIwMDAvc3ZnIiB4bWw6c3BhY2U9InByZXNlcnZlIiBzdHlsZT0iZW5hYmxlLWJhY2tncm91bmQ6bmV3IDAgMCAxMjAgMTIwO2VkaXRhYmxlQ3NzUnVsZXM9Lio7IiB2aWV3Qm94PSIwIDAgMTIwIDEyMCIgeT0iMHB4IiB4PSIwcHgiIGlkPSJMYXllcl8xIiB2ZXJzaW9uPSIxLjEiPiYjeGE7PHN0eWxlIHR5cGU9InRleHQvY3NzIj4mI3hhOwkuc3Qwe2ZpbGw6IzAwMTEzNTt9JiN4YTsJLnN0MXtmaWxsOm5vbmU7c3Ryb2tlOiNGRkZGRkY7c3Ryb2tlLXdpZHRoOjQ7c3Ryb2tlLWxpbmVjYXA6cm91bmQ7c3Ryb2tlLWxpbmVqb2luOnJvdW5kO3N0cm9rZS1taXRlcmxpbWl0OjEwO30mI3hhOwkuc3Qye2ZpbGw6I0ZGRkZGRjt9JiN4YTsJLnN0M3tmaWxsOm5vbmU7c3Ryb2tlOiNGRkZGRkY7c3Ryb2tlLXdpZHRoOjQ7c3Ryb2tlLW1pdGVybGltaXQ6MTA7fSYjeGE7CS5zdDR7ZmlsbDpub25lO3N0cm9rZTojRkZGRkZGO3N0cm9rZS13aWR0aDo0O3N0cm9rZS1saW5lY2FwOnJvdW5kO3N0cm9rZS1saW5lam9pbjpyb3VuZDt9JiN4YTsJLnN0NXtmaWxsOiNGRkZGRkY7c3Ryb2tlOiNGRkZGRkY7c3Ryb2tlLXdpZHRoOjQ7c3Ryb2tlLWxpbmVjYXA6cm91bmQ7c3Ryb2tlLWxpbmVqb2luOnJvdW5kO3N0cm9rZS1taXRlcmxpbWl0OjEwO30mI3hhOwkuc3Q2e2ZpbGw6bm9uZTtzdHJva2U6I0ZGRkZGRjtzdHJva2Utd2lkdGg6NC4yMzMzO3N0cm9rZS1saW5lY2FwOnJvdW5kO3N0cm9rZS1saW5lam9pbjpyb3VuZDtzdHJva2UtbWl0ZXJsaW1pdDoxMDt9JiN4YTsJLnN0N3tmaWxsOm5vbmU7c3Ryb2tlOiNGRkZGRkY7c3Ryb2tlLXdpZHRoOjQ7c3Ryb2tlLWxpbmVjYXA6cm91bmQ7c3Ryb2tlLW1pdGVybGltaXQ6MTA7fSYjeGE7CS5zdDh7ZmlsbDojRkZGRkZGO3N0cm9rZTojRkZGRkZGO3N0cm9rZS13aWR0aDo0O3N0cm9rZS1taXRlcmxpbWl0OjEwO30mI3hhOwkuc3Q5e2ZpbGw6I0ZGRkZGRjtzdHJva2U6I0ZGRkZGRjtzdHJva2Utd2lkdGg6NDt9JiN4YTsJLnN0MTB7ZmlsbDpub25lO3N0cm9rZTojRkZGRkZGO3N0cm9rZS13aWR0aDo0O30mI3hhOwkuc3QxMXtmaWxsOiMyNjI2MjY7c3Ryb2tlOiNGRkZGRkY7c3Ryb2tlLXdpZHRoOjQuMjMzMzt9JiN4YTsJLnN0MTJ7ZmlsbC1ydWxlOmV2ZW5vZGQ7Y2xpcC1ydWxlOmV2ZW5vZGQ7ZmlsbDpub25lO3N0cm9rZTojRkZGRkZGO3N0cm9rZS13aWR0aDo0O3N0cm9rZS1taXRlcmxpbWl0OjEwO30mI3hhOwkuc3QxM3tmaWxsLXJ1bGU6ZXZlbm9kZDtjbGlwLXJ1bGU6ZXZlbm9kZDtmaWxsOiNGRkZGRkY7c3Ryb2tlOiNGRkZGRkY7c3Ryb2tlLXdpZHRoOjQ7fSYjeGE7CS5zdDE0e2ZpbGw6bm9uZTtzdHJva2U6I0ZGRkZGRjtzdHJva2Utd2lkdGg6NC4yMzMzO3N0cm9rZS1saW5lY2FwOnJvdW5kO3N0cm9rZS1saW5lam9pbjpyb3VuZDt9JiN4YTsJLnN0MTV7ZmlsbDpub25lO3N0cm9rZTojRkZGRkZGO3N0cm9rZS13aWR0aDo0O3N0cm9rZS1saW5lY2FwOnJvdW5kO30mI3hhOwkuc3QxNntmaWxsOiNGRkZGRkY7c3Ryb2tlOiNGRkZGRkY7c3Ryb2tlLW1pdGVybGltaXQ6MTA7fSYjeGE7CS5zdDE3e2ZpbGw6IzI2MjYyNjtzdHJva2U6I0ZGRkZGRjtzdHJva2Utd2lkdGg6NDtzdHJva2UtbWl0ZXJsaW1pdDoxMDt9JiN4YTsJLnN0MTh7ZmlsbDojRkZGRkZGO3N0cm9rZTojRkZGRkZGO3N0cm9rZS13aWR0aDo0O3N0cm9rZS1saW5lY2FwOnJvdW5kO3N0cm9rZS1saW5lam9pbjpyb3VuZDt9JiN4YTs8L3N0eWxlPiYjeGE7PHJlY3QgaGVpZ2h0PSIxMjAiIHdpZHRoPSIxMjAiIGNsYXNzPSJzdDAiLz4mI3hhOzxnPiYjeGE7CTxnPiYjeGE7CQk8cGF0aCBkPSJNNzEuNywxOS43VjQ4aDI4IiBjbGFzcz0ic3QxIi8+JiN4YTsJCTxwYXRoIGQ9Ik05MS4yLDM4LjVsNy41LDcuNmMxLjMsMS4zLDEuMywzLjEsMCw0LjNMOTEuMSw1OCIgY2xhc3M9InN0MSIvPiYjeGE7CTwvZz4mI3hhOwk8Zz4mI3hhOwkJPHBhdGggZD0iTTIwLDQ3LjhoMjguNHYtMjgiIGNsYXNzPSJzdDEiLz4mI3hhOwkJPHBhdGggZD0iTTM4LjgsMjguM2w3LjYtNy41YzEuMy0xLjMsMy4xLTEuMyw0LjMsMGw3LjcsNy42IiBjbGFzcz0ic3QxIi8+JiN4YTsJPC9nPiYjeGE7CTxnPiYjeGE7CQk8cGF0aCBkPSJNNDgsMTAwLjNWNzJIMjAiIGNsYXNzPSJzdDEiLz4mI3hhOwkJPHBhdGggZD0iTTI4LjUsODEuNUwyMSw3My45Yy0xLjMtMS4zLTEuMy0zLjEsMC00LjNsNy42LTcuNyIgY2xhc3M9InN0MSIvPiYjeGE7CTwvZz4mI3hhOwk8Zz4mI3hhOwkJPHBhdGggZD0iTTEwMCw3MS45SDcxLjZ2MjgiIGNsYXNzPSJzdDEiLz4mI3hhOwkJPHBhdGggZD0iTTgxLjIsOTEuNGwtNy42LDcuNWMtMS4zLDEuMy0zLjEsMS4zLTQuMywwbC03LjctNy42IiBjbGFzcz0ic3QxIi8+JiN4YTsJPC9nPiYjeGE7PC9nPiYjeGE7PC9zdmc+;" vertex="1" parent="1">
          <mxGeometry x="700.0" y="275.0" width="75" height="75" as="geometry" />
      </mxCell>
    </object><object id="spine2" label="spine2">
      <mxCell style="shape=image;imageAlign=center;imageVerticalAlign=middle;labelPosition=left;align=right;verticalLabelPosition=top;spacingLeft=0;verticalAlign=bottom;spacingTop=0;spacing=0;editableCssRules=\.st[0-2]$;labelBackgroundColor=none;aspect=fixed;imageAspect=0;image=data:image/svg+xml,PHN2ZyB4bWxuczp4bGluaz0iaHR0cDovL3d3dy53My5vcmcvMTk5OS94bGluayIgeG1sbnM9Imh0dHA6Ly93d3cudzMub3JnLzIwMDAvc3ZnIiB4bWw6c3BhY2U9InByZXNlcnZlIiBzdHlsZT0iZW5hYmxlLWJhY2tncm91bmQ6bmV3IDAgMCAxMjAgMTIwO2VkaXRhYmxlQ3NzUnVsZXM9Lio7IiB2aWV3Qm94PSIwIDAgMTIwIDEyMCIgeT0iMHB4IiB4PSIwcHgiIGlkPSJMYXllcl8xIiB2ZXJzaW9uPSIxLjEiPiYjeGE7PHN0eWxlIHR5cGU9InRleHQvY3NzIj4mI3hhOwkuc3Qwe2ZpbGw6IzAwMTEzNTt9JiN4YTsJLnN0MXtmaWxsOm5vbmU7c3Ryb2tlOiNGRkZGRkY7c3Ryb2tlLXdpZHRoOjQ7c3Ryb2tlLWxpbmVjYXA6cm91bmQ7c3Ryb2tlLWxpbmVqb2luOnJvdW5kO3N0cm9rZS1taXRlcmxpbWl0OjEwO30mI3hhOwkuc3Qye2ZpbGw6I0ZGRkZGRjt9JiN4YTsJLnN0M3tmaWxsOm5vbmU7c3Ryb2tlOiNGRkZGRkY7c3Ryb2tlLXdpZHRoOjQ7c3Ryb2tlLW1pdGVybGltaXQ6MTA7fSYjeGE7CS5zdDR7ZmlsbDpub25lO3N0cm9rZTojRkZGRkZGO3N0cm9rZS13aWR0aDo0O3N0cm9rZS1saW5lY2FwOnJvdW5kO3N0cm9rZS1saW5lam9pbjpyb3VuZDt9JiN4YTsJLnN0NXtmaWxsOiNGRkZGRkY7c3Ryb2tlOiNGRkZGRkY7c3Ryb2tlLXdpZHRoOjQ7c3Ryb2tlLWxpbmVjYXA6cm91bmQ7c3Ryb2tlLWxpbmVqb2luOnJvdW5kO3N0cm9rZS1taXRlcmxpbWl0OjEwO30mI3hhOwkuc3Q2e2ZpbGw6bm9uZTtzdHJva2U6I0ZGRkZGRjtzdHJva2Utd2lkdGg6NC4yMzMzO3N0cm9rZS1saW5lY2FwOnJvdW5kO3N0cm9rZS1saW5lam9pbjpyb3VuZDtzdHJva2UtbWl0ZXJsaW1pdDoxMDt9JiN4YTsJLnN0N3tmaWxsOm5vbmU7c3Ryb2tlOiNGRkZGRkY7c3Ryb2tlLXdpZHRoOjQ7c3Ryb2tlLWxpbmVjYXA6cm91bmQ7c3Ryb2tlLW1pdGVybGltaXQ6MTA7fSYjeGE7CS5zdDh7ZmlsbDojRkZGRkZGO3N0cm9rZTojRkZGRkZGO3N0cm9rZS13aWR0aDo0O3N0cm9rZS1taXRlcmxpbWl0OjEwO30mI3hhOwkuc3Q5e2ZpbGw6I0ZGRkZGRjtzdHJva2U6I0ZGRkZGRjtzdHJva2Utd2lkdGg6NDt9JiN4YTsJLnN0MTB7ZmlsbDpub25lO3N0cm9rZTojRkZGRkZGO3N0cm9rZS13aWR0aDo0O30mI3hhOwkuc3QxMXtmaWxsOiMyNjI2MjY7c3Ryb2tlOiNGRkZGRkY7c3Ryb2tlLXdpZHRoOjQuMjMzMzt9JiN4YTsJLnN0MTJ7ZmlsbC1ydWxlOmV2ZW5vZGQ7Y2xpcC1ydWxlOmV2ZW5vZGQ7ZmlsbDpub25lO3N0cm9rZTojRkZGRkZGO3N0cm9rZS13aWR0aDo0O3N0cm9rZS1taXRlcmxpbWl0OjEwO30mI3hhOwkuc3QxM3tmaWxsLXJ1bGU6ZXZlbm9kZDtjbGlwLXJ1bGU6ZXZlbm9kZDtmaWxsOiNGRkZGRkY7c3Ryb2tlOiNGRkZGRkY7c3Ryb2tlLXdpZHRoOjQ7fSYjeGE7CS5zdDE0e2ZpbGw6bm9uZTtzdHJva2U6I0ZGRkZGRjtzdHJva2Utd2lkdGg6NC4yMzMzO3N0cm9rZS1saW5lY2FwOnJvdW5kO3N0cm9rZS1saW5lam9pbjpyb3VuZDt9JiN4YTsJLnN0MTV7ZmlsbDpub25lO3N0cm9rZTojRkZGRkZGO3N0cm9rZS13aWR0aDo0O3N0cm9rZS1saW5lY2FwOnJvdW5kO30mI3hhOwkuc3QxNntmaWxsOiNGRkZGRkY7c3Ryb2tlOiNGRkZGRkY7c3Ryb2tlLW1pdGVybGltaXQ6MTA7fSYjeGE7CS5zdDE3e2ZpbGw6IzI2MjYyNjtzdHJva2U6I0ZGRkZGRjtzdHJva2Utd2lkdGg6NDtzdHJva2UtbWl0ZXJsaW1pdDoxMDt9JiN4YTsJLnN0MTh7ZmlsbDojRkZGRkZGO3N0cm9rZTojRkZGRkZGO3N0cm9rZS13aWR0aDo0O3N0cm9rZS1saW5lY2FwOnJvdW5kO3N0cm9rZS1saW5lam9pbjpyb3VuZDt9JiN4YTs8L3N0eWxlPiYjeGE7PHJlY3QgaGVpZ2h0PSIxMjAiIHdpZHRoPSIxMjAiIGNsYXNzPSJzdDAiLz4mI3hhOzxnPiYjeGE7CTxnPiYjeGE7CQk8cGF0aCBkPSJNNzEuNywxOS43VjQ4aDI4IiBjbGFzcz0ic3QxIi8+JiN4YTsJCTxwYXRoIGQ9Ik05MS4yLDM4LjVsNy41LDcuNmMxLjMsMS4zLDEuMywzLjEsMCw0LjNMOTEuMSw1OCIgY2xhc3M9InN0MSIvPiYjeGE7CTwvZz4mI3hhOwk8Zz4mI3hhOwkJPHBhdGggZD0iTTIwLDQ3LjhoMjguNHYtMjgiIGNsYXNzPSJzdDEiLz4mI3hhOwkJPHBhdGggZD0iTTM4LjgsMjguM2w3LjYtNy41YzEuMy0xLjMsMy4xLTEuMyw0LjMsMGw3LjcsNy42IiBjbGFzcz0ic3QxIi8+JiN4YTsJPC9nPiYjeGE7CTxnPiYjeGE7CQk8cGF0aCBkPSJNNDgsMTAwLjNWNzJIMjAiIGNsYXNzPSJzdDEiLz4mI3hhOwkJPHBhdGggZD0iTTI4LjUsODEuNUwyMSw3My45Yy0xLjMtMS4zLTEuMy0zLjEsMC00LjNsNy42LTcuNyIgY2xhc3M9InN0MSIvPiYjeGE7CTwvZz4mI3hhOwk8Zz4mI3hhOwkJPHBhdGggZD0iTTEwMCw3MS45SDcxLjZ2MjgiIGNsYXNzPSJzdDEiLz4mI3hhOwkJPHBhdGggZD0iTTgxLjIsOTEuNGwtNy42LDcuNWMtMS4zLDEuMy0zLjEsMS4zLTQuMywwbC03LjctNy42IiBjbGFzcz0ic3QxIi8+JiN4YTsJPC9nPiYjeGE7PC9nPiYjeGE7PC9zdmc+;" vertex="1" parent="1">
          <mxGeometry x="550.0" y="175.0" width="75" height="75" as="geometry" />
      </mxCell>
    </object><object id="leaf3" label="leaf3">
      <mxCell style="shape=image;imageAlign=center;imageVerticalAlign=middle;labelPosition=left;align=right;verticalLabelPosition=top;spacingLeft=0;verticalAlign=bottom;spacingTop=0;spacing=0;editableCssRules=\.st[0-2]$;labelBackgroundColor=none;aspect=fixed;imageAspect=0;image=data:image/svg+xml,PHN2ZyB4bWxuczp4bGluaz0iaHR0cDovL3d3dy53My5vcmcvMTk5OS94bGluayIgeG1sbnM9Imh0dHA6Ly93d3cudzMub3JnLzIwMDAvc3ZnIiB4bWw6c3BhY2U9InByZXNlcnZlIiBzdHlsZT0iZW5hYmxlLWJhY2tncm91bmQ6bmV3IDAgMCAxMjAgMTIwO2VkaXRhYmxlQ3NzUnVsZXM9Lio7IiB2aWV3Qm94PSIwIDAgMTIwIDEyMCIgeT0iMHB4IiB4PSIwcHgiIGlkPSJMYXllcl8xIiB2ZXJzaW9uPSIxLjEiPiYjeGE7PHN0eWxlIHR5cGU9InRleHQvY3NzIj4mI3hhOwkuc3Qwe2ZpbGw6IzAwMTEzNTt9JiN4YTsJLnN0MXtmaWxsOm5vbmU7c3Ryb2tlOiNGRkZGRkY7c3Ryb2tlLXdpZHRoOjQ7c3Ryb2tlLWxpbmVjYXA6cm91bmQ7c3Ryb2tlLWxpbmVqb2luOnJvdW5kO3N0cm9rZS1taXRlcmxpbWl0OjEwO30mI3hhOwkuc3Qye2ZpbGw6I0ZGRkZGRjt9JiN4YTsJLnN0M3tmaWxsOm5vbmU7c3Ryb2tlOiNGRkZGRkY7c3Ryb2tlLXdpZHRoOjQ7c3Ryb2tlLW1pdGVybGltaXQ6MTA7fSYjeGE7CS5zdDR7ZmlsbDpub25lO3N0cm9rZTojRkZGRkZGO3N0cm9rZS13aWR0aDo0O3N0cm9rZS1saW5lY2FwOnJvdW5kO3N0cm9rZS1saW5lam9pbjpyb3VuZDt9JiN4YTsJLnN0NXtmaWxsOiNGRkZGRkY7c3Ryb2tlOiNGRkZGRkY7c3Ryb2tlLXdpZHRoOjQ7c3Ryb2tlLWxpbmVjYXA6cm91bmQ7c3Ryb2tlLWxpbmVqb2luOnJvdW5kO3N0cm9rZS1taXRlcmxpbWl0OjEwO30mI3hhOwkuc3Q2e2ZpbGw6bm9uZTtzdHJva2U6I0ZGRkZGRjtzdHJva2Utd2lkdGg6NC4yMzMzO3N0cm9rZS1saW5lY2FwOnJvdW5kO3N0cm9rZS1saW5lam9pbjpyb3VuZDtzdHJva2UtbWl0ZXJsaW1pdDoxMDt9JiN4YTsJLnN0N3tmaWxsOm5vbmU7c3Ryb2tlOiNGRkZGRkY7c3Ryb2tlLXdpZHRoOjQ7c3Ryb2tlLWxpbmVjYXA6cm91bmQ7c3Ryb2tlLW1pdGVybGltaXQ6MTA7fSYjeGE7CS5zdDh7ZmlsbDojRkZGRkZGO3N0cm9rZTojRkZGRkZGO3N0cm9rZS13aWR0aDo0O3N0cm9rZS1taXRlcmxpbWl0OjEwO30mI3hhOwkuc3Q5e2ZpbGw6I0ZGRkZGRjtzdHJva2U6I0ZGRkZGRjtzdHJva2Utd2lkdGg6NDt9JiN4YTsJLnN0MTB7ZmlsbDpub25lO3N0cm9rZTojRkZGRkZGO3N0cm9rZS13aWR0aDo0O30mI3hhOwkuc3QxMXtmaWxsOiMyNjI2MjY7c3Ryb2tlOiNGRkZGRkY7c3Ryb2tlLXdpZHRoOjQuMjMzMzt9JiN4YTsJLnN0MTJ7ZmlsbC1ydWxlOmV2ZW5vZGQ7Y2xpcC1ydWxlOmV2ZW5vZGQ7ZmlsbDpub25lO3N0cm9rZTojRkZGRkZGO3N0cm9rZS13aWR0aDo0O3N0cm9rZS1taXRlcmxpbWl0OjEwO30mI3hhOwkuc3QxM3tmaWxsLXJ1bGU6ZXZlbm9kZDtjbGlwLXJ1bGU6ZXZlbm9kZDtmaWxsOiNGRkZGRkY7c3Ryb2tlOiNGRkZGRkY7c3Ryb2tlLXdpZHRoOjQ7fSYjeGE7CS5zdDE0e2ZpbGw6bm9uZTtzdHJva2U6I0ZGRkZGRjtzdHJva2Utd2lkdGg6NC4yMzMzO3N0cm9rZS1saW5lY2FwOnJvdW5kO3N0cm9rZS1saW5lam9pbjpyb3VuZDt9JiN4YTsJLnN0MTV7ZmlsbDpub25lO3N0cm9rZTojRkZGRkZGO3N0cm9rZS13aWR0aDo0O3N0cm9rZS1saW5lY2FwOnJvdW5kO30mI3hhOwkuc3QxNntmaWxsOiNGRkZGRkY7c3Ryb2tlOiNGRkZGRkY7c3Ryb2tlLW1pdGVybGltaXQ6MTA7fSYjeGE7CS5zdDE3e2ZpbGw6IzI2MjYyNjtzdHJva2U6I0ZGRkZGRjtzdHJva2Utd2lkdGg6NDtzdHJva2UtbWl0ZXJsaW1pdDoxMDt9JiN4YTsJLnN0MTh7ZmlsbDojRkZGRkZGO3N0cm9rZTojRkZGRkZGO3N0cm9rZS13aWR0aDo0O3N0cm9rZS1saW5lY2FwOnJvdW5kO3N0cm9rZS1saW5lam9pbjpyb3VuZDt9JiN4YTs8L3N0eWxlPiYjeGE7PHJlY3QgaGVpZ2h0PSIxMjAiIHdpZHRoPSIxMjAiIGNsYXNzPSJzdDAiLz4mI3hhOzxnPiYjeGE7CTxnPiYjeGE7CQk8cGF0aCBkPSJNNzEuNywxOS43VjQ4aDI4IiBjbGFzcz0ic3QxIi8+JiN4YTsJCTxwYXRoIGQ9Ik05MS4yLDM4LjVsNy41LDcuNmMxLjMsMS4zLDEuMywzLjEsMCw0LjNMOTEuMSw1OCIgY2xhc3M9InN0MSIvPiYjeGE7CTwvZz4mI3hhOwk8Zz4mI3hhOwkJPHBhdGggZD0iTTIwLDQ3LjhoMjguNHYtMjgiIGNsYXNzPSJzdDEiLz4mI3hhOwkJPHBhdGggZD0iTTM4LjgsMjguM2w3LjYtNy41YzEuMy0xLjMsMy4xLTEuMyw0LjMsMGw3LjcsNy42IiBjbGFzcz0ic3QxIi8+JiN4YTsJPC9nPiYjeGE7CTxnPiYjeGE7CQk8cGF0aCBkPSJNNDgsMTAwLjNWNzJIMjAiIGNsYXNzPSJzdDEiLz4mI3hhOwkJPHBhdGggZD0iTTI4LjUsODEuNUwyMSw3My45Yy0xLjMtMS4zLTEuMy0zLjEsMC00LjNsNy42LTcuNyIgY2xhc3M9InN0MSIvPiYjeGE7CTwvZz4mI3hhOwk8Zz4mI3hhOwkJPHBhdGggZD0iTTEwMCw3MS45SDcxLjZ2MjgiIGNsYXNzPSJzdDEiLz4mI3hhOwkJPHBhdGggZD0iTTgxLjIsOTEuNGwtNy42LDcuNWMtMS4zLDEuMy0zLjEsMS4zLTQuMywwbC03LjctNy42IiBjbGFzcz0ic3QxIi8+JiN4YTsJPC9nPiYjeGE7PC9nPiYjeGE7PC9zdmc+;" vertex="1" parent="1">
          <mxGeometry x="475.0" y="100.0" width="75" height="75" as="geometry" />
      </mxCell>
    </object><object id="leaf4" label="leaf4">
      <mxCell style="shape=image;imageAlign=center;imageVerticalAlign=middle;labelPosition=left;align=right;verticalLabelPosition=top;spacingLeft=0;verticalAlign=bottom;spacingTop=0;spacing=0;editableCssRules=\.st[0-2]$;labelBackgroundColor=none;aspect=fixed;imageAspect=0;image=data:image/svg+xml,PHN2ZyB4bWxuczp4bGluaz0iaHR0cDovL3d3dy53My5vcmcvMTk5OS94bGluayIgeG1sbnM9Imh0dHA6Ly93d3cudzMub3JnLzIwMDAvc3ZnIiB4bWw6c3BhY2U9InByZXNlcnZlIiBzdHlsZT0iZW5hYmxlLWJhY2tncm91bmQ6bmV3IDAgMCAxMjAgMTIwO2VkaXRhYmxlQ3NzUnVsZXM9Lio7IiB2aWV3Qm94PSIwIDAgMTIwIDEyMCIgeT0iMHB4IiB4PSIwcHgiIGlkPSJMYXllcl8xIiB2ZXJzaW9uPSIxLjEiPiYjeGE7PHN0eWxlIHR5cGU9InRleHQvY3NzIj4mI3hhOwkuc3Qwe2ZpbGw6IzAwMTEzNTt9JiN4YTsJLnN0MXtmaWxsOm5vbmU7c3Ryb2tlOiNGRkZGRkY7c3Ryb2tlLXdpZHRoOjQ7c3Ryb2tlLWxpbmVjYXA6cm91bmQ7c3Ryb2tlLWxpbmVqb2luOnJvdW5kO3N0cm9rZS1taXRlcmxpbWl0OjEwO30mI3hhOwkuc3Qye2ZpbGw6I0ZGRkZGRjt9JiN4YTsJLnN0M3tmaWxsOm5vbmU7c3Ryb2tlOiNGRkZGRkY7c3Ryb2tlLXdpZHRoOjQ7c3Ryb2tlLW1pdGVybGltaXQ6MTA7fSYjeGE7CS5zdDR7ZmlsbDpub25lO3N0cm9rZTojRkZGRkZGO3N0cm9rZS13aWR0aDo0O3N0cm9rZS1saW5lY2FwOnJvdW5kO3N0cm9rZS1saW5lam9pbjpyb3VuZDt9JiN4YTsJLnN0NXtmaWxsOiNGRkZGRkY7c3Ryb2tlOiNGRkZGRkY7c3Ryb2tlLXdpZHRoOjQ7c3Ryb2tlLWxpbmVjYXA6cm91bmQ7c3Ryb2tlLWxpbmVqb2luOnJvdW5kO3N0cm9rZS1taXRlcmxpbWl0OjEwO30mI3hhOwkuc3Q2e2ZpbGw6bm9uZTtzdHJva2U6I0ZGRkZGRjtzdHJva2Utd2lkdGg6NC4yMzMzO3N0cm9rZS1saW5lY2FwOnJvdW5kO3N0cm9rZS1saW5lam9pbjpyb3VuZDtzdHJva2UtbWl0ZXJsaW1pdDoxMDt9JiN4YTsJLnN0N3tmaWxsOm5vbmU7c3Ryb2tlOiNGRkZGRkY7c3Ryb2tlLXdpZHRoOjQ7c3Ryb2tlLWxpbmVjYXA6cm91bmQ7c3Ryb2tlLW1pdGVybGltaXQ6MTA7fSYjeGE7CS5zdDh7ZmlsbDojRkZGRkZGO3N0cm9rZTojRkZGRkZGO3N0cm9rZS13aWR0aDo0O3N0cm9rZS1taXRlcmxpbWl0OjEwO30mI3hhOwkuc3Q5e2ZpbGw6I0ZGRkZGRjtzdHJva2U6I0ZGRkZGRjtzdHJva2Utd2lkdGg6NDt9JiN4YTsJLnN0MTB7ZmlsbDpub25lO3N0cm9rZTojRkZGRkZGO3N0cm9rZS13aWR0aDo0O30mI3hhOwkuc3QxMXtmaWxsOiMyNjI2MjY7c3Ryb2tlOiNGRkZGRkY7c3Ryb2tlLXdpZHRoOjQuMjMzMzt9JiN4YTsJLnN0MTJ7ZmlsbC1ydWxlOmV2ZW5vZGQ7Y2xpcC1ydWxlOmV2ZW5vZGQ7ZmlsbDpub25lO3N0cm9rZTojRkZGRkZGO3N0cm9rZS13aWR0aDo0O3N0cm9rZS1taXRlcmxpbWl0OjEwO30mI3hhOwkuc3QxM3tmaWxsLXJ1bGU6ZXZlbm9kZDtjbGlwLXJ1bGU6ZXZlbm9kZDtmaWxsOiNGRkZGRkY7c3Ryb2tlOiNGRkZGRkY7c3Ryb2tlLXdpZHRoOjQ7fSYjeGE7CS5zdDE0e2ZpbGw6bm9uZTtzdHJva2U6I0ZGRkZGRjtzdHJva2Utd2lkdGg6NC4yMzMzO3N0cm9rZS1saW5lY2FwOnJvdW5kO3N0cm9rZS1saW5lam9pbjpyb3VuZDt9JiN4YTsJLnN0MTV7ZmlsbDpub25lO3N0cm9rZTojRkZGRkZGO3N0cm9rZS13aWR0aDo0O3N0cm9rZS1saW5lY2FwOnJvdW5kO30mI3hhOwkuc3QxNntmaWxsOiNGRkZGRkY7c3Ryb2tlOiNGRkZGRkY7c3Ryb2tlLW1pdGVybGltaXQ6MTA7fSYjeGE7CS5zdDE3e2ZpbGw6IzI2MjYyNjtzdHJva2U6I0ZGRkZGRjtzdHJva2Utd2lkdGg6NDtzdHJva2UtbWl0ZXJsaW1pdDoxMDt9JiN4YTsJLnN0MTh7ZmlsbDojRkZGRkZGO3N0cm9rZTojRkZGRkZGO3N0cm9rZS13aWR0aDo0O3N0cm9rZS1saW5lY2FwOnJvdW5kO3N0cm9rZS1saW5lam9pbjpyb3VuZDt9JiN4YTs8L3N0eWxlPiYjeGE7PHJlY3QgaGVpZ2h0PSIxMjAiIHdpZHRoPSIxMjAiIGNsYXNzPSJzdDAiLz4mI3hhOzxnPiYjeGE7CTxnPiYjeGE7CQk8cGF0aCBkPSJNNzEuNywxOS43VjQ4aDI4IiBjbGFzcz0ic3QxIi8+JiN4YTsJCTxwYXRoIGQ9Ik05MS4yLDM4LjVsNy41LDcuNmMxLjMsMS4zLDEuMywzLjEsMCw0LjNMOTEuMSw1OCIgY2xhc3M9InN0MSIvPiYjeGE7CTwvZz4mI3hhOwk8Zz4mI3hhOwkJPHBhdGggZD0iTTIwLDQ3LjhoMjguNHYtMjgiIGNsYXNzPSJzdDEiLz4mI3hhOwkJPHBhdGggZD0iTTM4LjgsMjguM2w3LjYtNy41YzEuMy0xLjMsMy4xLTEuMyw0LjMsMGw3LjcsNy42IiBjbGFzcz0ic3QxIi8+JiN4YTsJPC9nPiYjeGE7CTxnPiYjeGE7CQk8cGF0aCBkPSJNNDgsMTAwLjNWNzJIMjAiIGNsYXNzPSJzdDEiLz4mI3hhOwkJPHBhdGggZD0iTTI4LjUsODEuNUwyMSw3My45Yy0xLjMtMS4zLTEuMy0zLjEsMC00LjNsNy42LTcuNyIgY2xhc3M9InN0MSIvPiYjeGE7CTwvZz4mI3hhOwk8Zz4mI3hhOwkJPHBhdGggZD0iTTEwMCw3MS45SDcxLjZ2MjgiIGNsYXNzPSJzdDEiLz4mI3hhOwkJPHBhdGggZD0iTTgxLjIsOTEuNGwtNy42LDcuNWMtMS4zLDEuMy0zLjEsMS4zLTQuMywwbC03LjctNy42IiBjbGFzcz0ic3QxIi8+JiN4YTsJPC9nPiYjeGE7PC9nPiYjeGE7PC9zdmc+;" vertex="1" parent="1">
          <mxGeometry x="250.0" y="275.0" width="75" height="75" as="geometry" />
      </mxCell>
    </object><object id="leaf5" label="leaf5">
      <mxCell style="shape=image;imageAlign=center;imageVerticalAlign=middle;labelPosition=left;align=right;verticalLabelPosition=top;spacingLeft=0;verticalAlign=bottom;spacingTop=0;spacing=0;editableCssRules=\.st[0-2]$;labelBackgroundColor=none;aspect=fixed;imageAspect=0;image=data:image/svg+xml,PHN2ZyB4bWxuczp4bGluaz0iaHR0cDovL3d3dy53My5vcmcvMTk5OS94bGluayIgeG1sbnM9Imh0dHA6Ly93d3cudzMub3JnLzIwMDAvc3ZnIiB4bWw6c3BhY2U9InByZXNlcnZlIiBzdHlsZT0iZW5hYmxlLWJhY2tncm91bmQ6bmV3IDAgMCAxMjAgMTIwO2VkaXRhYmxlQ3NzUnVsZXM9Lio7IiB2aWV3Qm94PSIwIDAgMTIwIDEyMCIgeT0iMHB4IiB4PSIwcHgiIGlkPSJMYXllcl8xIiB2ZXJzaW9uPSIxLjEiPiYjeGE7PHN0eWxlIHR5cGU9InRleHQvY3NzIj4mI3hhOwkuc3Qwe2ZpbGw6IzAwMTEzNTt9JiN4YTsJLnN0MXtmaWxsOm5vbmU7c3Ryb2tlOiNGRkZGRkY7c3Ryb2tlLXdpZHRoOjQ7c3Ryb2tlLWxpbmVjYXA6cm91bmQ7c3Ryb2tlLWxpbmVqb2luOnJvdW5kO3N0cm9rZS1taXRlcmxpbWl0OjEwO30mI3hhOwkuc3Qye2ZpbGw6I0ZGRkZGRjt9JiN4YTsJLnN0M3tmaWxsOm5vbmU7c3Ryb2tlOiNGRkZGRkY7c3Ryb2tlLXdpZHRoOjQ7c3Ryb2tlLW1pdGVybGltaXQ6MTA7fSYjeGE7CS5zdDR7ZmlsbDpub25lO3N0cm9rZTojRkZGRkZGO3N0cm9rZS13aWR0aDo0O3N0cm9rZS1saW5lY2FwOnJvdW5kO3N0cm9rZS1saW5lam9pbjpyb3VuZDt9JiN4YTsJLnN0NXtmaWxsOiNGRkZGRkY7c3Ryb2tlOiNGRkZGRkY7c3Ryb2tlLXdpZHRoOjQ7c3Ryb2tlLWxpbmVjYXA6cm91bmQ7c3Ryb2tlLWxpbmVqb2luOnJvdW5kO3N0cm9rZS1taXRlcmxpbWl0OjEwO30mI3hhOwkuc3Q2e2ZpbGw6bm9uZTtzdHJva2U6I0ZGRkZGRjtzdHJva2Utd2lkdGg6NC4yMzMzO3N0cm9rZS1saW5lY2FwOnJvdW5kO3N0cm9rZS1saW5lam9pbjpyb3VuZDtzdHJva2UtbWl0ZXJsaW1pdDoxMDt9JiN4YTsJLnN0N3tmaWxsOm5vbmU7c3Ryb2tlOiNGRkZGRkY7c3Ryb2tlLXdpZHRoOjQ7c3Ryb2tlLWxpbmVjYXA6cm91bmQ7c3Ryb2tlLW1pdGVybGltaXQ6MTA7fSYjeGE7CS5zdDh7ZmlsbDojRkZGRkZGO3N0cm9rZTojRkZGRkZGO3N0cm9rZS13aWR0aDo0O3N0cm9rZS1taXRlcmxpbWl0OjEwO30mI3hhOwkuc3Q5e2ZpbGw6I0ZGRkZGRjtzdHJva2U6I0ZGRkZGRjtzdHJva2Utd2lkdGg6NDt9JiN4YTsJLnN0MTB7ZmlsbDpub25lO3N0cm9rZTojRkZGRkZGO3N0cm9rZS13aWR0aDo0O30mI3hhOwkuc3QxMXtmaWxsOiMyNjI2MjY7c3Ryb2tlOiNGRkZGRkY7c3Ryb2tlLXdpZHRoOjQuMjMzMzt9JiN4YTsJLnN0MTJ7ZmlsbC1ydWxlOmV2ZW5vZGQ7Y2xpcC1ydWxlOmV2ZW5vZGQ7ZmlsbDpub25lO3N0cm9rZTojRkZGRkZGO3N0cm9rZS13aWR0aDo0O3N0cm9rZS1taXRlcmxpbWl0OjEwO30mI3hhOwkuc3QxM3tmaWxsLXJ1bGU6ZXZlbm9kZDtjbGlwLXJ1bGU6ZXZlbm9kZDtmaWxsOiNGRkZGRkY7c3Ryb2tlOiNGRkZGRkY7c3Ryb2tlLXdpZHRoOjQ7fSYjeGE7CS5zdDE0e2ZpbGw6bm9uZTtzdHJva2U6I0ZGRkZGRjtzdHJva2Utd2lkdGg6NC4yMzMzO3N0cm9rZS1saW5lY2FwOnJvdW5kO3N0cm9rZS1saW5lam9pbjpyb3VuZDt9JiN4YTsJLnN0MTV7ZmlsbDpub25lO3N0cm9rZTojRkZGRkZGO3N0cm9rZS13aWR0aDo0O3N0cm9rZS1saW5lY2FwOnJvdW5kO30mI3hhOwkuc3QxNntmaWxsOiNGRkZGRkY7c3Ryb2tlOiNGRkZGRkY7c3Ryb2tlLW1pdGVybGltaXQ6MTA7fSYjeGE7CS5zdDE3e2ZpbGw6IzI2MjYyNjtzdHJva2U6I0ZGRkZGRjtzdHJva2Utd2lkdGg6NDtzdHJva2UtbWl0ZXJsaW1pdDoxMDt9JiN4YTsJLnN0MTh7ZmlsbDojRkZGRkZGO3N0cm9rZTojRkZGRkZGO3N0cm9rZS13aWR0aDo0O3N0cm9rZS1saW5lY2FwOnJvdW5kO3N0cm9rZS1saW5lam9pbjpyb3VuZDt9JiN4YTs8L3N0eWxlPiYjeGE7PHJlY3QgaGVpZ2h0PSIxMjAiIHdpZHRoPSIxMjAiIGNsYXNzPSJzdDAiLz4mI3hhOzxnPiYjeGE7CTxnPiYjeGE7CQk8cGF0aCBkPSJNNzEuNywxOS43VjQ4aDI4IiBjbGFzcz0ic3QxIi8+JiN4YTsJCTxwYXRoIGQ9Ik05MS4yLDM4LjVsNy41LDcuNmMxLjMsMS4zLDEuMywzLjEsMCw0LjNMOTEuMSw1OCIgY2xhc3M9InN0MSIvPiYjeGE7CTwvZz4mI3hhOwk8Zz4mI3hhOwkJPHBhdGggZD0iTTIwLDQ3LjhoMjguNHYtMjgiIGNsYXNzPSJzdDEiLz4mI3hhOwkJPHBhdGggZD0iTTM4LjgsMjguM2w3LjYtNy41YzEuMy0xLjMsMy4xLTEuMyw0LjMsMGw3LjcsNy42IiBjbGFzcz0ic3QxIi8+JiN4YTsJPC9nPiYjeGE7CTxnPiYjeGE7CQk8cGF0aCBkPSJNNDgsMTAwLjNWNzJIMjAiIGNsYXNzPSJzdDEiLz4mI3hhOwkJPHBhdGggZD0iTTI4LjUsODEuNUwyMSw3My45Yy0xLjMtMS4zLTEuMy0zLjEsMC00LjNsNy42LTcuNyIgY2xhc3M9InN0MSIvPiYjeGE7CTwvZz4mI3hhOwk8Zz4mI3hhOwkJPHBhdGggZD0iTTEwMCw3MS45SDcxLjZ2MjgiIGNsYXNzPSJzdDEiLz4mI3hhOwkJPHBhdGggZD0iTTgxLjIsOTEuNGwtNy42LDcuNWMtMS4zLDEuMy0zLjEsMS4zLTQuMywwbC03LjctNy42IiBjbGFzcz0ic3QxIi8+JiN4YTsJPC9nPiYjeGE7PC9nPiYjeGE7PC9zdmc+;" vertex="1" parent="1">
          <mxGeometry x="625.0" y="100.0" width="75" height="75" as="geometry" />
      </mxCell>
    </object><object id="client1" label="client1">
      <mxCell style="shape=image;imageAlign=center;imageVerticalAlign=middle;labelPosition=left;align=right;verticalLabelPosition=top;spacingLeft=0;verticalAlign=bottom;spacingTop=0;spacing=0;editableCssRules=\.st[0-2]$;labelBackgroundColor=none;aspect=fixed;imageAspect=0;image=data:image/svg+xml,PHN2ZyB4bWxuczp4bGluaz0iaHR0cDovL3d3dy53My5vcmcvMTk5OS94bGluayIgeG1sbnM9Imh0dHA6Ly93d3cudzMub3JnLzIwMDAvc3ZnIiB4bWw6c3BhY2U9InByZXNlcnZlIiBzdHlsZT0iZW5hYmxlLWJhY2tncm91bmQ6bmV3IDAgMCAxMjAgMTIwOyIgdmlld0JveD0iMCAwIDEyMCAxMjAiIHk9IjBweCIgeD0iMHB4IiBpZD0iTGF5ZXJfMSIgdmVyc2lvbj0iMS4xIj4mI3hhOzxzdHlsZSB0eXBlPSJ0ZXh0L2NzcyI+JiN4YTsJLnN0MHtmaWxsOiMwMDExMzU7fSYjeGE7CS5zdDF7ZmlsbDpub25lO3N0cm9rZTojRkZGRkZGO3N0cm9rZS13aWR0aDo0O3N0cm9rZS1saW5lY2FwOnJvdW5kO3N0cm9rZS1saW5lam9pbjpyb3VuZDtzdHJva2UtbWl0ZXJsaW1pdDoxMDt9JiN4YTsJLnN0MntmaWxsOiNGRkZGRkY7fSYjeGE7CS5zdDN7ZmlsbDpub25lO3N0cm9rZTojRkZGRkZGO3N0cm9rZS13aWR0aDo0O3N0cm9rZS1taXRlcmxpbWl0OjEwO30mI3hhOwkuc3Q0e2ZpbGw6bm9uZTtzdHJva2U6I0ZGRkZGRjtzdHJva2Utd2lkdGg6NDtzdHJva2UtbGluZWNhcDpyb3VuZDtzdHJva2UtbGluZWpvaW46cm91bmQ7fSYjeGE7CS5zdDV7ZmlsbDojRkZGRkZGO3N0cm9rZTojRkZGRkZGO3N0cm9rZS13aWR0aDo0O3N0cm9rZS1saW5lY2FwOnJvdW5kO3N0cm9rZS1saW5lam9pbjpyb3VuZDtzdHJva2UtbWl0ZXJsaW1pdDoxMDt9JiN4YTsJLnN0NntmaWxsOm5vbmU7c3Ryb2tlOiNGRkZGRkY7c3Ryb2tlLXdpZHRoOjQuMjMzMztzdHJva2UtbGluZWNhcDpyb3VuZDtzdHJva2UtbGluZWpvaW46cm91bmQ7c3Ryb2tlLW1pdGVybGltaXQ6MTA7fSYjeGE7CS5zdDd7ZmlsbDpub25lO3N0cm9rZTojRkZGRkZGO3N0cm9rZS13aWR0aDo0O3N0cm9rZS1saW5lY2FwOnJvdW5kO3N0cm9rZS1taXRlcmxpbWl0OjEwO30mI3hhOwkuc3Q4e2ZpbGw6I0ZGRkZGRjtzdHJva2U6I0ZGRkZGRjtzdHJva2Utd2lkdGg6NDtzdHJva2UtbWl0ZXJsaW1pdDoxMDt9JiN4YTsJLnN0OXtmaWxsOiNGRkZGRkY7c3Ryb2tlOiNGRkZGRkY7c3Ryb2tlLXdpZHRoOjQ7fSYjeGE7CS5zdDEwe2ZpbGw6bm9uZTtzdHJva2U6I0ZGRkZGRjtzdHJva2Utd2lkdGg6NDt9JiN4YTsJLnN0MTF7ZmlsbDojMjYyNjI2O3N0cm9rZTojRkZGRkZGO3N0cm9rZS13aWR0aDo0LjIzMzM7fSYjeGE7CS5zdDEye2ZpbGwtcnVsZTpldmVub2RkO2NsaXAtcnVsZTpldmVub2RkO2ZpbGw6bm9uZTtzdHJva2U6I0ZGRkZGRjtzdHJva2Utd2lkdGg6NDtzdHJva2UtbWl0ZXJsaW1pdDoxMDt9JiN4YTsJLnN0MTN7ZmlsbC1ydWxlOmV2ZW5vZGQ7Y2xpcC1ydWxlOmV2ZW5vZGQ7ZmlsbDojRkZGRkZGO3N0cm9rZTojRkZGRkZGO3N0cm9rZS13aWR0aDo0O30mI3hhOwkuc3QxNHtmaWxsOm5vbmU7c3Ryb2tlOiNGRkZGRkY7c3Ryb2tlLXdpZHRoOjQuMjMzMztzdHJva2UtbGluZWNhcDpyb3VuZDtzdHJva2UtbGluZWpvaW46cm91bmQ7fSYjeGE7CS5zdDE1e2ZpbGw6bm9uZTtzdHJva2U6I0ZGRkZGRjtzdHJva2Utd2lkdGg6NDtzdHJva2UtbGluZWNhcDpyb3VuZDt9JiN4YTsJLnN0MTZ7ZmlsbDojRkZGRkZGO3N0cm9rZTojRkZGRkZGO3N0cm9rZS1taXRlcmxpbWl0OjEwO30mI3hhOwkuc3QxN3tmaWxsOiMyNjI2MjY7c3Ryb2tlOiNGRkZGRkY7c3Ryb2tlLXdpZHRoOjQ7c3Ryb2tlLW1pdGVybGltaXQ6MTA7fSYjeGE7CS5zdDE4e2ZpbGw6I0ZGRkZGRjtzdHJva2U6I0ZGRkZGRjtzdHJva2Utd2lkdGg6NDtzdHJva2UtbGluZWNhcDpyb3VuZDtzdHJva2UtbGluZWpvaW46cm91bmQ7fSYjeGE7PC9zdHlsZT4mI3hhOzxyZWN0IGhlaWdodD0iMTIwIiB3aWR0aD0iMTIwIiBjbGFzcz0ic3QwIi8+JiN4YTs8Zz4mI3hhOwk8cGF0aCBkPSJNMTAwLDkxLjFIMjBIMTAweiBNODkuMSwzMi41YzAtMC41LDAtMS0wLjItMS40Yy0wLjItMC41LTAuNC0wLjktMC44LTEuMmMtMC4zLTAuMy0wLjgtMC42LTEuMi0wLjgmIzEwOyYjOTsmIzk7Yy0wLjUtMC4yLTAuOS0wLjItMS40LTAuMkgzNC42Yy0wLjUsMC0xLDAtMS40LDAuMmMtMC41LDAuMi0wLjksMC40LTEuMiwwLjhjLTAuMywwLjMtMC42LDAuOC0wLjgsMS4yYy0wLjIsMC41LTAuMiwwLjktMC4yLDEuNCYjMTA7JiM5OyYjOTtWNzZoNTguMlYzMi41eiIgY2xhc3M9InN0NCIvPiYjeGE7PC9nPiYjeGE7PC9zdmc+;" vertex="1" parent="1">
          <mxGeometry x="325.0" y="100.0" width="75" height="75" as="geometry" />
      </mxCell>
    </object><object id="client2" label="client2">
      <mxCell style="shape=image;imageAlign=center;imageVerticalAlign=middle;labelPosition=left;align=right;verticalLabelPosition=top;spacingLeft=0;verticalAlign=bottom;spacingTop=0;spacing=0;editableCssRules=\.st[0-2]$;labelBackgroundColor=none;aspect=fixed;imageAspect=0;image=data:image/svg+xml,PHN2ZyB4bWxuczp4bGluaz0iaHR0cDovL3d3dy53My5vcmcvMTk5OS94bGluayIgeG1sbnM9Imh0dHA6Ly93d3cudzMub3JnLzIwMDAvc3ZnIiB4bWw6c3BhY2U9InByZXNlcnZlIiBzdHlsZT0iZW5hYmxlLWJhY2tncm91bmQ6bmV3IDAgMCAxMjAgMTIwOyIgdmlld0JveD0iMCAwIDEyMCAxMjAiIHk9IjBweCIgeD0iMHB4IiBpZD0iTGF5ZXJfMSIgdmVyc2lvbj0iMS4xIj4mI3hhOzxzdHlsZSB0eXBlPSJ0ZXh0L2NzcyI+JiN4YTsJLnN0MHtmaWxsOiMwMDExMzU7fSYjeGE7CS5zdDF7ZmlsbDpub25lO3N0cm9rZTojRkZGRkZGO3N0cm9rZS13aWR0aDo0O3N0cm9rZS1saW5lY2FwOnJvdW5kO3N0cm9rZS1saW5lam9pbjpyb3VuZDtzdHJva2UtbWl0ZXJsaW1pdDoxMDt9JiN4YTsJLnN0MntmaWxsOiNGRkZGRkY7fSYjeGE7CS5zdDN7ZmlsbDpub25lO3N0cm9rZTojRkZGRkZGO3N0cm9rZS13aWR0aDo0O3N0cm9rZS1taXRlcmxpbWl0OjEwO30mI3hhOwkuc3Q0e2ZpbGw6bm9uZTtzdHJva2U6I0ZGRkZGRjtzdHJva2Utd2lkdGg6NDtzdHJva2UtbGluZWNhcDpyb3VuZDtzdHJva2UtbGluZWpvaW46cm91bmQ7fSYjeGE7CS5zdDV7ZmlsbDojRkZGRkZGO3N0cm9rZTojRkZGRkZGO3N0cm9rZS13aWR0aDo0O3N0cm9rZS1saW5lY2FwOnJvdW5kO3N0cm9rZS1saW5lam9pbjpyb3VuZDtzdHJva2UtbWl0ZXJsaW1pdDoxMDt9JiN4YTsJLnN0NntmaWxsOm5vbmU7c3Ryb2tlOiNGRkZGRkY7c3Ryb2tlLXdpZHRoOjQuMjMzMztzdHJva2UtbGluZWNhcDpyb3VuZDtzdHJva2UtbGluZWpvaW46cm91bmQ7c3Ryb2tlLW1pdGVybGltaXQ6MTA7fSYjeGE7CS5zdDd7ZmlsbDpub25lO3N0cm9rZTojRkZGRkZGO3N0cm9rZS13aWR0aDo0O3N0cm9rZS1saW5lY2FwOnJvdW5kO3N0cm9rZS1taXRlcmxpbWl0OjEwO30mI3hhOwkuc3Q4e2ZpbGw6I0ZGRkZGRjtzdHJva2U6I0ZGRkZGRjtzdHJva2Utd2lkdGg6NDtzdHJva2UtbWl0ZXJsaW1pdDoxMDt9JiN4YTsJLnN0OXtmaWxsOiNGRkZGRkY7c3Ryb2tlOiNGRkZGRkY7c3Ryb2tlLXdpZHRoOjQ7fSYjeGE7CS5zdDEwe2ZpbGw6bm9uZTtzdHJva2U6I0ZGRkZGRjtzdHJva2Utd2lkdGg6NDt9JiN4YTsJLnN0MTF7ZmlsbDojMjYyNjI2O3N0cm9rZTojRkZGRkZGO3N0cm9rZS13aWR0aDo0LjIzMzM7fSYjeGE7CS5zdDEye2ZpbGwtcnVsZTpldmVub2RkO2NsaXAtcnVsZTpldmVub2RkO2ZpbGw6bm9uZTtzdHJva2U6I0ZGRkZGRjtzdHJva2Utd2lkdGg6NDtzdHJva2UtbWl0ZXJsaW1pdDoxMDt9JiN4YTsJLnN0MTN7ZmlsbC1ydWxlOmV2ZW5vZGQ7Y2xpcC1ydWxlOmV2ZW5vZGQ7ZmlsbDojRkZGRkZGO3N0cm9rZTojRkZGRkZGO3N0cm9rZS13aWR0aDo0O30mI3hhOwkuc3QxNHtmaWxsOm5vbmU7c3Ryb2tlOiNGRkZGRkY7c3Ryb2tlLXdpZHRoOjQuMjMzMztzdHJva2UtbGluZWNhcDpyb3VuZDtzdHJva2UtbGluZWpvaW46cm91bmQ7fSYjeGE7CS5zdDE1e2ZpbGw6bm9uZTtzdHJva2U6I0ZGRkZGRjtzdHJva2Utd2lkdGg6NDtzdHJva2UtbGluZWNhcDpyb3VuZDt9JiN4YTsJLnN0MTZ7ZmlsbDojRkZGRkZGO3N0cm9rZTojRkZGRkZGO3N0cm9rZS1taXRlcmxpbWl0OjEwO30mI3hhOwkuc3QxN3tmaWxsOiMyNjI2MjY7c3Ryb2tlOiNGRkZGRkY7c3Ryb2tlLXdpZHRoOjQ7c3Ryb2tlLW1pdGVybGltaXQ6MTA7fSYjeGE7CS5zdDE4e2ZpbGw6I0ZGRkZGRjtzdHJva2U6I0ZGRkZGRjtzdHJva2Utd2lkdGg6NDtzdHJva2UtbGluZWNhcDpyb3VuZDtzdHJva2UtbGluZWpvaW46cm91bmQ7fSYjeGE7PC9zdHlsZT4mI3hhOzxyZWN0IGhlaWdodD0iMTIwIiB3aWR0aD0iMTIwIiBjbGFzcz0ic3QwIi8+JiN4YTs8Zz4mI3hhOwk8cGF0aCBkPSJNMTAwLDkxLjFIMjBIMTAweiBNODkuMSwzMi41YzAtMC41LDAtMS0wLjItMS40Yy0wLjItMC41LTAuNC0wLjktMC44LTEuMmMtMC4zLTAuMy0wLjgtMC42LTEuMi0wLjgmIzEwOyYjOTsmIzk7Yy0wLjUtMC4yLTAuOS0wLjItMS40LTAuMkgzNC42Yy0wLjUsMC0xLDAtMS40LDAuMmMtMC41LDAuMi0wLjksMC40LTEuMiwwLjhjLTAuMywwLjMtMC42LDAuOC0wLjgsMS4yYy0wLjIsMC41LTAuMiwwLjktMC4yLDEuNCYjMTA7JiM5OyYjOTtWNzZoNTguMlYzMi41eiIgY2xhc3M9InN0NCIvPiYjeGE7PC9nPiYjeGE7PC9zdmc+;" vertex="1" parent="1">
          <mxGeometry x="175.0" y="100.0" width="75" height="75" as="geometry" />
      </mxCell>
    </object><object id="client3" label="client3">
      <mxCell style="shape=image;imageAlign=center;imageVerticalAlign=middle;labelPosition=left;align=right;verticalLabelPosition=top;spacingLeft=0;verticalAlign=bottom;spacingTop=0;spacing=0;editableCssRules=\.st[0-2]$;labelBackgroundColor=none;aspect=fixed;imageAspect=0;image=data:image/svg+xml,PHN2ZyB4bWxuczp4bGluaz0iaHR0cDovL3d3dy53My5vcmcvMTk5OS94bGluayIgeG1sbnM9Imh0dHA6Ly93d3cudzMub3JnLzIwMDAvc3ZnIiB4bWw6c3BhY2U9InByZXNlcnZlIiBzdHlsZT0iZW5hYmxlLWJhY2tncm91bmQ6bmV3IDAgMCAxMjAgMTIwOyIgdmlld0JveD0iMCAwIDEyMCAxMjAiIHk9IjBweCIgeD0iMHB4IiBpZD0iTGF5ZXJfMSIgdmVyc2lvbj0iMS4xIj4mI3hhOzxzdHlsZSB0eXBlPSJ0ZXh0L2NzcyI+JiN4YTsJLnN0MHtmaWxsOiMwMDExMzU7fSYjeGE7CS5zdDF7ZmlsbDpub25lO3N0cm9rZTojRkZGRkZGO3N0cm9rZS13aWR0aDo0O3N0cm9rZS1saW5lY2FwOnJvdW5kO3N0cm9rZS1saW5lam9pbjpyb3VuZDtzdHJva2UtbWl0ZXJsaW1pdDoxMDt9JiN4YTsJLnN0MntmaWxsOiNGRkZGRkY7fSYjeGE7CS5zdDN7ZmlsbDpub25lO3N0cm9rZTojRkZGRkZGO3N0cm9rZS13aWR0aDo0O3N0cm9rZS1taXRlcmxpbWl0OjEwO30mI3hhOwkuc3Q0e2ZpbGw6bm9uZTtzdHJva2U6I0ZGRkZGRjtzdHJva2Utd2lkdGg6NDtzdHJva2UtbGluZWNhcDpyb3VuZDtzdHJva2UtbGluZWpvaW46cm91bmQ7fSYjeGE7CS5zdDV7ZmlsbDojRkZGRkZGO3N0cm9rZTojRkZGRkZGO3N0cm9rZS13aWR0aDo0O3N0cm9rZS1saW5lY2FwOnJvdW5kO3N0cm9rZS1saW5lam9pbjpyb3VuZDtzdHJva2UtbWl0ZXJsaW1pdDoxMDt9JiN4YTsJLnN0NntmaWxsOm5vbmU7c3Ryb2tlOiNGRkZGRkY7c3Ryb2tlLXdpZHRoOjQuMjMzMztzdHJva2UtbGluZWNhcDpyb3VuZDtzdHJva2UtbGluZWpvaW46cm91bmQ7c3Ryb2tlLW1pdGVybGltaXQ6MTA7fSYjeGE7CS5zdDd7ZmlsbDpub25lO3N0cm9rZTojRkZGRkZGO3N0cm9rZS13aWR0aDo0O3N0cm9rZS1saW5lY2FwOnJvdW5kO3N0cm9rZS1taXRlcmxpbWl0OjEwO30mI3hhOwkuc3Q4e2ZpbGw6I0ZGRkZGRjtzdHJva2U6I0ZGRkZGRjtzdHJva2Utd2lkdGg6NDtzdHJva2UtbWl0ZXJsaW1pdDoxMDt9JiN4YTsJLnN0OXtmaWxsOiNGRkZGRkY7c3Ryb2tlOiNGRkZGRkY7c3Ryb2tlLXdpZHRoOjQ7fSYjeGE7CS5zdDEwe2ZpbGw6bm9uZTtzdHJva2U6I0ZGRkZGRjtzdHJva2Utd2lkdGg6NDt9JiN4YTsJLnN0MTF7ZmlsbDojMjYyNjI2O3N0cm9rZTojRkZGRkZGO3N0cm9rZS13aWR0aDo0LjIzMzM7fSYjeGE7CS5zdDEye2ZpbGwtcnVsZTpldmVub2RkO2NsaXAtcnVsZTpldmVub2RkO2ZpbGw6bm9uZTtzdHJva2U6I0ZGRkZGRjtzdHJva2Utd2lkdGg6NDtzdHJva2UtbWl0ZXJsaW1pdDoxMDt9JiN4YTsJLnN0MTN7ZmlsbC1ydWxlOmV2ZW5vZGQ7Y2xpcC1ydWxlOmV2ZW5vZGQ7ZmlsbDojRkZGRkZGO3N0cm9rZTojRkZGRkZGO3N0cm9rZS13aWR0aDo0O30mI3hhOwkuc3QxNHtmaWxsOm5vbmU7c3Ryb2tlOiNGRkZGRkY7c3Ryb2tlLXdpZHRoOjQuMjMzMztzdHJva2UtbGluZWNhcDpyb3VuZDtzdHJva2UtbGluZWpvaW46cm91bmQ7fSYjeGE7CS5zdDE1e2ZpbGw6bm9uZTtzdHJva2U6I0ZGRkZGRjtzdHJva2Utd2lkdGg6NDtzdHJva2UtbGluZWNhcDpyb3VuZDt9JiN4YTsJLnN0MTZ7ZmlsbDojRkZGRkZGO3N0cm9rZTojRkZGRkZGO3N0cm9rZS1taXRlcmxpbWl0OjEwO30mI3hhOwkuc3QxN3tmaWxsOiMyNjI2MjY7c3Ryb2tlOiNGRkZGRkY7c3Ryb2tlLXdpZHRoOjQ7c3Ryb2tlLW1pdGVybGltaXQ6MTA7fSYjeGE7CS5zdDE4e2ZpbGw6I0ZGRkZGRjtzdHJva2U6I0ZGRkZGRjtzdHJva2Utd2lkdGg6NDtzdHJva2UtbGluZWNhcDpyb3VuZDtzdHJva2UtbGluZWpvaW46cm91bmQ7fSYjeGE7PC9zdHlsZT4mI3hhOzxyZWN0IGhlaWdodD0iMTIwIiB3aWR0aD0iMTIwIiBjbGFzcz0ic3QwIi8+JiN4YTs8Zz4mI3hhOwk8cGF0aCBkPSJNMTAwLDkxLjFIMjBIMTAweiBNODkuMSwzMi41YzAtMC41LDAtMS0wLjItMS40Yy0wLjItMC41LTAuNC0wLjktMC44LTEuMmMtMC4zLTAuMy0wLjgtMC42LTEuMi0wLjgmIzEwOyYjOTsmIzk7Yy0wLjUtMC4yLTAuOS0wLjItMS40LTAuMkgzNC42Yy0wLjUsMC0xLDAtMS40LDAuMmMtMC41LDAuMi0wLjksMC40LTEuMiwwLjhjLTAuMywwLjMtMC42LDAuOC0wLjgsMS4yYy0wLjIsMC41LTAuMiwwLjktMC4yLDEuNCYjMTA7JiM5OyYjOTtWNzZoNTguMlYzMi41eiIgY2xhc3M9InN0NCIvPiYjeGE7PC9nPiYjeGE7PC9zdmc+;" vertex="1" parent="1">
          <mxGeometry x="775.0" y="100.0" width="75" height="75" as="geometry" />
      </mxCell>
    </object><object id="client4" label="client4">
      <mxCell style="shape=image;imageAlign=center;imageVerticalAlign=middle;labelPosition=left;align=right;verticalLabelPosition=top;spacingLeft=0;verticalAlign=bottom;spacingTop=0;spacing=0;editableCssRules=\.st[0-2]$;labelBackgroundColor=none;aspect=fixed;imageAspect=0;image=data:image/svg+xml,PHN2ZyB4bWxuczp4bGluaz0iaHR0cDovL3d3dy53My5vcmcvMTk5OS94bGluayIgeG1sbnM9Imh0dHA6Ly93d3cudzMub3JnLzIwMDAvc3ZnIiB4bWw6c3BhY2U9InByZXNlcnZlIiBzdHlsZT0iZW5hYmxlLWJhY2tncm91bmQ6bmV3IDAgMCAxMjAgMTIwOyIgdmlld0JveD0iMCAwIDEyMCAxMjAiIHk9IjBweCIgeD0iMHB4IiBpZD0iTGF5ZXJfMSIgdmVyc2lvbj0iMS4xIj4mI3hhOzxzdHlsZSB0eXBlPSJ0ZXh0L2NzcyI+JiN4YTsJLnN0MHtmaWxsOiMwMDExMzU7fSYjeGE7CS5zdDF7ZmlsbDpub25lO3N0cm9rZTojRkZGRkZGO3N0cm9rZS13aWR0aDo0O3N0cm9rZS1saW5lY2FwOnJvdW5kO3N0cm9rZS1saW5lam9pbjpyb3VuZDtzdHJva2UtbWl0ZXJsaW1pdDoxMDt9JiN4YTsJLnN0MntmaWxsOiNGRkZGRkY7fSYjeGE7CS5zdDN7ZmlsbDpub25lO3N0cm9rZTojRkZGRkZGO3N0cm9rZS13aWR0aDo0O3N0cm9rZS1taXRlcmxpbWl0OjEwO30mI3hhOwkuc3Q0e2ZpbGw6bm9uZTtzdHJva2U6I0ZGRkZGRjtzdHJva2Utd2lkdGg6NDtzdHJva2UtbGluZWNhcDpyb3VuZDtzdHJva2UtbGluZWpvaW46cm91bmQ7fSYjeGE7CS5zdDV7ZmlsbDojRkZGRkZGO3N0cm9rZTojRkZGRkZGO3N0cm9rZS13aWR0aDo0O3N0cm9rZS1saW5lY2FwOnJvdW5kO3N0cm9rZS1saW5lam9pbjpyb3VuZDtzdHJva2UtbWl0ZXJsaW1pdDoxMDt9JiN4YTsJLnN0NntmaWxsOm5vbmU7c3Ryb2tlOiNGRkZGRkY7c3Ryb2tlLXdpZHRoOjQuMjMzMztzdHJva2UtbGluZWNhcDpyb3VuZDtzdHJva2UtbGluZWpvaW46cm91bmQ7c3Ryb2tlLW1pdGVybGltaXQ6MTA7fSYjeGE7CS5zdDd7ZmlsbDpub25lO3N0cm9rZTojRkZGRkZGO3N0cm9rZS13aWR0aDo0O3N0cm9rZS1saW5lY2FwOnJvdW5kO3N0cm9rZS1taXRlcmxpbWl0OjEwO30mI3hhOwkuc3Q4e2ZpbGw6I0ZGRkZGRjtzdHJva2U6I0ZGRkZGRjtzdHJva2Utd2lkdGg6NDtzdHJva2UtbWl0ZXJsaW1pdDoxMDt9JiN4YTsJLnN0OXtmaWxsOiNGRkZGRkY7c3Ryb2tlOiNGRkZGRkY7c3Ryb2tlLXdpZHRoOjQ7fSYjeGE7CS5zdDEwe2ZpbGw6bm9uZTtzdHJva2U6I0ZGRkZGRjtzdHJva2Utd2lkdGg6NDt9JiN4YTsJLnN0MTF7ZmlsbDojMjYyNjI2O3N0cm9rZTojRkZGRkZGO3N0cm9rZS13aWR0aDo0LjIzMzM7fSYjeGE7CS5zdDEye2ZpbGwtcnVsZTpldmVub2RkO2NsaXAtcnVsZTpldmVub2RkO2ZpbGw6bm9uZTtzdHJva2U6I0ZGRkZGRjtzdHJva2Utd2lkdGg6NDtzdHJva2UtbWl0ZXJsaW1pdDoxMDt9JiN4YTsJLnN0MTN7ZmlsbC1ydWxlOmV2ZW5vZGQ7Y2xpcC1ydWxlOmV2ZW5vZGQ7ZmlsbDojRkZGRkZGO3N0cm9rZTojRkZGRkZGO3N0cm9rZS13aWR0aDo0O30mI3hhOwkuc3QxNHtmaWxsOm5vbmU7c3Ryb2tlOiNGRkZGRkY7c3Ryb2tlLXdpZHRoOjQuMjMzMztzdHJva2UtbGluZWNhcDpyb3VuZDtzdHJva2UtbGluZWpvaW46cm91bmQ7fSYjeGE7CS5zdDE1e2ZpbGw6bm9uZTtzdHJva2U6I0ZGRkZGRjtzdHJva2Utd2lkdGg6NDtzdHJva2UtbGluZWNhcDpyb3VuZDt9JiN4YTsJLnN0MTZ7ZmlsbDojRkZGRkZGO3N0cm9rZTojRkZGRkZGO3N0cm9rZS1taXRlcmxpbWl0OjEwO30mI3hhOwkuc3QxN3tmaWxsOiMyNjI2MjY7c3Ryb2tlOiNGRkZGRkY7c3Ryb2tlLXdpZHRoOjQ7c3Ryb2tlLW1pdGVybGltaXQ6MTA7fSYjeGE7CS5zdDE4e2ZpbGw6I0ZGRkZGRjtzdHJva2U6I0ZGRkZGRjtzdHJva2Utd2lkdGg6NDtzdHJva2UtbGluZWNhcDpyb3VuZDtzdHJva2UtbGluZWpvaW46cm91bmQ7fSYjeGE7PC9zdHlsZT4mI3hhOzxyZWN0IGhlaWdodD0iMTIwIiB3aWR0aD0iMTIwIiBjbGFzcz0ic3QwIi8+JiN4YTs8Zz4mI3hhOwk8cGF0aCBkPSJNMTAwLDkxLjFIMjBIMTAweiBNODkuMSwzMi41YzAtMC41LDAtMS0wLjItMS40Yy0wLjItMC41LTAuNC0wLjktMC44LTEuMmMtMC4zLTAuMy0wLjgtMC42LTEuMi0wLjgmIzEwOyYjOTsmIzk7Yy0wLjUtMC4yLTAuOS0wLjItMS40LTAuMkgzNC42Yy0wLjUsMC0xLDAtMS40LDAuMmMtMC41LDAuMi0wLjksMC40LTEuMiwwLjhjLTAuMywwLjMtMC42LDAuOC0wLjgsMS4yYy0wLjIsMC41LTAuMiwwLjktMC4yLDEuNCYjMTA7JiM5OyYjOTtWNzZoNTguMlYzMi41eiIgY2xhc3M9InN0NCIvPiYjeGE7PC9nPiYjeGE7PC9zdmc+;" vertex="1" parent="1">
          <mxGeometry x="925.0" y="100.0" width="75" height="75" as="geometry" />
      </mxCell>
    </object><object id="client5" label="client5">
      <mxCell style="shape=image;imageAlign=center;imageVerticalAlign=middle;labelPosition=left;align=right;verticalLabelPosition=top;spacingLeft=0;verticalAlign=bottom;spacingTop=0;spacing=0;editableCssRules=\.st[0-2]$;labelBackgroundColor=none;aspect=fixed;imageAspect=0;image=data:image/svg+xml,PHN2ZyB4bWxuczp4bGluaz0iaHR0cDovL3d3dy53My5vcmcvMTk5OS94bGluayIgeG1sbnM9Imh0dHA6Ly93d3cudzMub3JnLzIwMDAvc3ZnIiB4bWw6c3BhY2U9InByZXNlcnZlIiBzdHlsZT0iZW5hYmxlLWJhY2tncm91bmQ6bmV3IDAgMCAxMjAgMTIwOyIgdmlld0JveD0iMCAwIDEyMCAxMjAiIHk9IjBweCIgeD0iMHB4IiBpZD0iTGF5ZXJfMSIgdmVyc2lvbj0iMS4xIj4mI3hhOzxzdHlsZSB0eXBlPSJ0ZXh0L2NzcyI+JiN4YTsJLnN0MHtmaWxsOiMwMDExMzU7fSYjeGE7CS5zdDF7ZmlsbDpub25lO3N0cm9rZTojRkZGRkZGO3N0cm9rZS13aWR0aDo0O3N0cm9rZS1saW5lY2FwOnJvdW5kO3N0cm9rZS1saW5lam9pbjpyb3VuZDtzdHJva2UtbWl0ZXJsaW1pdDoxMDt9JiN4YTsJLnN0MntmaWxsOiNGRkZGRkY7fSYjeGE7CS5zdDN7ZmlsbDpub25lO3N0cm9rZTojRkZGRkZGO3N0cm9rZS13aWR0aDo0O3N0cm9rZS1taXRlcmxpbWl0OjEwO30mI3hhOwkuc3Q0e2ZpbGw6bm9uZTtzdHJva2U6I0ZGRkZGRjtzdHJva2Utd2lkdGg6NDtzdHJva2UtbGluZWNhcDpyb3VuZDtzdHJva2UtbGluZWpvaW46cm91bmQ7fSYjeGE7CS5zdDV7ZmlsbDojRkZGRkZGO3N0cm9rZTojRkZGRkZGO3N0cm9rZS13aWR0aDo0O3N0cm9rZS1saW5lY2FwOnJvdW5kO3N0cm9rZS1saW5lam9pbjpyb3VuZDtzdHJva2UtbWl0ZXJsaW1pdDoxMDt9JiN4YTsJLnN0NntmaWxsOm5vbmU7c3Ryb2tlOiNGRkZGRkY7c3Ryb2tlLXdpZHRoOjQuMjMzMztzdHJva2UtbGluZWNhcDpyb3VuZDtzdHJva2UtbGluZWpvaW46cm91bmQ7c3Ryb2tlLW1pdGVybGltaXQ6MTA7fSYjeGE7CS5zdDd7ZmlsbDpub25lO3N0cm9rZTojRkZGRkZGO3N0cm9rZS13aWR0aDo0O3N0cm9rZS1saW5lY2FwOnJvdW5kO3N0cm9rZS1taXRlcmxpbWl0OjEwO30mI3hhOwkuc3Q4e2ZpbGw6I0ZGRkZGRjtzdHJva2U6I0ZGRkZGRjtzdHJva2Utd2lkdGg6NDtzdHJva2UtbWl0ZXJsaW1pdDoxMDt9JiN4YTsJLnN0OXtmaWxsOiNGRkZGRkY7c3Ryb2tlOiNGRkZGRkY7c3Ryb2tlLXdpZHRoOjQ7fSYjeGE7CS5zdDEwe2ZpbGw6bm9uZTtzdHJva2U6I0ZGRkZGRjtzdHJva2Utd2lkdGg6NDt9JiN4YTsJLnN0MTF7ZmlsbDojMjYyNjI2O3N0cm9rZTojRkZGRkZGO3N0cm9rZS13aWR0aDo0LjIzMzM7fSYjeGE7CS5zdDEye2ZpbGwtcnVsZTpldmVub2RkO2NsaXAtcnVsZTpldmVub2RkO2ZpbGw6bm9uZTtzdHJva2U6I0ZGRkZGRjtzdHJva2Utd2lkdGg6NDtzdHJva2UtbWl0ZXJsaW1pdDoxMDt9JiN4YTsJLnN0MTN7ZmlsbC1ydWxlOmV2ZW5vZGQ7Y2xpcC1ydWxlOmV2ZW5vZGQ7ZmlsbDojRkZGRkZGO3N0cm9rZTojRkZGRkZGO3N0cm9rZS13aWR0aDo0O30mI3hhOwkuc3QxNHtmaWxsOm5vbmU7c3Ryb2tlOiNGRkZGRkY7c3Ryb2tlLXdpZHRoOjQuMjMzMztzdHJva2UtbGluZWNhcDpyb3VuZDtzdHJva2UtbGluZWpvaW46cm91bmQ7fSYjeGE7CS5zdDE1e2ZpbGw6bm9uZTtzdHJva2U6I0ZGRkZGRjtzdHJva2Utd2lkdGg6NDtzdHJva2UtbGluZWNhcDpyb3VuZDt9JiN4YTsJLnN0MTZ7ZmlsbDojRkZGRkZGO3N0cm9rZTojRkZGRkZGO3N0cm9rZS1taXRlcmxpbWl0OjEwO30mI3hhOwkuc3QxN3tmaWxsOiMyNjI2MjY7c3Ryb2tlOiNGRkZGRkY7c3Ryb2tlLXdpZHRoOjQ7c3Ryb2tlLW1pdGVybGltaXQ6MTA7fSYjeGE7CS5zdDE4e2ZpbGw6I0ZGRkZGRjtzdHJva2U6I0ZGRkZGRjtzdHJva2Utd2lkdGg6NDtzdHJva2UtbGluZWNhcDpyb3VuZDtzdHJva2UtbGluZWpvaW46cm91bmQ7fSYjeGE7PC9zdHlsZT4mI3hhOzxyZWN0IGhlaWdodD0iMTIwIiB3aWR0aD0iMTIwIiBjbGFzcz0ic3QwIi8+JiN4YTs8Zz4mI3hhOwk8cGF0aCBkPSJNMTAwLDkxLjFIMjBIMTAweiBNODkuMSwzMi41YzAtMC41LDAtMS0wLjItMS40Yy0wLjItMC41LTAuNC0wLjktMC44LTEuMmMtMC4zLTAuMy0wLjgtMC42LTEuMi0wLjgmIzEwOyYjOTsmIzk7Yy0wLjUtMC4yLTAuOS0wLjItMS40LTAuMkgzNC42Yy0wLjUsMC0xLDAtMS40LDAuMmMtMC41LDAuMi0wLjksMC40LTEuMiwwLjhjLTAuMywwLjMtMC42LDAuOC0wLjgsMS4yYy0wLjIsMC41LTAuMiwwLjktMC4yLDEuNCYjMTA7JiM5OyYjOTtWNzZoNTguMlYzMi41eiIgY2xhc3M9InN0NCIvPiYjeGE7PC9nPiYjeGE7PC9zdmc+;" vertex="1" parent="1">
          <mxGeometry x="100.0" y="275.0" width="75" height="75" as="geometry" />
      </mxCell>
    </object><object id="client6" label="client6">
      <mxCell style="shape=image;imageAlign=center;imageVerticalAlign=middle;labelPosition=left;align=right;verticalLabelPosition=top;spacingLeft=0;verticalAlign=bottom;spacingTop=0;spacing=0;editableCssRules=\.st[0-2]$;labelBackgroundColor=none;aspect=fixed;imageAspect=0;image=data:image/svg+xml,PHN2ZyB4bWxuczp4bGluaz0iaHR0cDovL3d3dy53My5vcmcvMTk5OS94bGluayIgeG1sbnM9Imh0dHA6Ly93d3cudzMub3JnLzIwMDAvc3ZnIiB4bWw6c3BhY2U9InByZXNlcnZlIiBzdHlsZT0iZW5hYmxlLWJhY2tncm91bmQ6bmV3IDAgMCAxMjAgMTIwOyIgdmlld0JveD0iMCAwIDEyMCAxMjAiIHk9IjBweCIgeD0iMHB4IiBpZD0iTGF5ZXJfMSIgdmVyc2lvbj0iMS4xIj4mI3hhOzxzdHlsZSB0eXBlPSJ0ZXh0L2NzcyI+JiN4YTsJLnN0MHtmaWxsOiMwMDExMzU7fSYjeGE7CS5zdDF7ZmlsbDpub25lO3N0cm9rZTojRkZGRkZGO3N0cm9rZS13aWR0aDo0O3N0cm9rZS1saW5lY2FwOnJvdW5kO3N0cm9rZS1saW5lam9pbjpyb3VuZDtzdHJva2UtbWl0ZXJsaW1pdDoxMDt9JiN4YTsJLnN0MntmaWxsOiNGRkZGRkY7fSYjeGE7CS5zdDN7ZmlsbDpub25lO3N0cm9rZTojRkZGRkZGO3N0cm9rZS13aWR0aDo0O3N0cm9rZS1taXRlcmxpbWl0OjEwO30mI3hhOwkuc3Q0e2ZpbGw6bm9uZTtzdHJva2U6I0ZGRkZGRjtzdHJva2Utd2lkdGg6NDtzdHJva2UtbGluZWNhcDpyb3VuZDtzdHJva2UtbGluZWpvaW46cm91bmQ7fSYjeGE7CS5zdDV7ZmlsbDojRkZGRkZGO3N0cm9rZTojRkZGRkZGO3N0cm9rZS13aWR0aDo0O3N0cm9rZS1saW5lY2FwOnJvdW5kO3N0cm9rZS1saW5lam9pbjpyb3VuZDtzdHJva2UtbWl0ZXJsaW1pdDoxMDt9JiN4YTsJLnN0NntmaWxsOm5vbmU7c3Ryb2tlOiNGRkZGRkY7c3Ryb2tlLXdpZHRoOjQuMjMzMztzdHJva2UtbGluZWNhcDpyb3VuZDtzdHJva2UtbGluZWpvaW46cm91bmQ7c3Ryb2tlLW1pdGVybGltaXQ6MTA7fSYjeGE7CS5zdDd7ZmlsbDpub25lO3N0cm9rZTojRkZGRkZGO3N0cm9rZS13aWR0aDo0O3N0cm9rZS1saW5lY2FwOnJvdW5kO3N0cm9rZS1taXRlcmxpbWl0OjEwO30mI3hhOwkuc3Q4e2ZpbGw6I0ZGRkZGRjtzdHJva2U6I0ZGRkZGRjtzdHJva2Utd2lkdGg6NDtzdHJva2UtbWl0ZXJsaW1pdDoxMDt9JiN4YTsJLnN0OXtmaWxsOiNGRkZGRkY7c3Ryb2tlOiNGRkZGRkY7c3Ryb2tlLXdpZHRoOjQ7fSYjeGE7CS5zdDEwe2ZpbGw6bm9uZTtzdHJva2U6I0ZGRkZGRjtzdHJva2Utd2lkdGg6NDt9JiN4YTsJLnN0MTF7ZmlsbDojMjYyNjI2O3N0cm9rZTojRkZGRkZGO3N0cm9rZS13aWR0aDo0LjIzMzM7fSYjeGE7CS5zdDEye2ZpbGwtcnVsZTpldmVub2RkO2NsaXAtcnVsZTpldmVub2RkO2ZpbGw6bm9uZTtzdHJva2U6I0ZGRkZGRjtzdHJva2Utd2lkdGg6NDtzdHJva2UtbWl0ZXJsaW1pdDoxMDt9JiN4YTsJLnN0MTN7ZmlsbC1ydWxlOmV2ZW5vZGQ7Y2xpcC1ydWxlOmV2ZW5vZGQ7ZmlsbDojRkZGRkZGO3N0cm9rZTojRkZGRkZGO3N0cm9rZS13aWR0aDo0O30mI3hhOwkuc3QxNHtmaWxsOm5vbmU7c3Ryb2tlOiNGRkZGRkY7c3Ryb2tlLXdpZHRoOjQuMjMzMztzdHJva2UtbGluZWNhcDpyb3VuZDtzdHJva2UtbGluZWpvaW46cm91bmQ7fSYjeGE7CS5zdDE1e2ZpbGw6bm9uZTtzdHJva2U6I0ZGRkZGRjtzdHJva2Utd2lkdGg6NDtzdHJva2UtbGluZWNhcDpyb3VuZDt9JiN4YTsJLnN0MTZ7ZmlsbDojRkZGRkZGO3N0cm9rZTojRkZGRkZGO3N0cm9rZS1taXRlcmxpbWl0OjEwO30mI3hhOwkuc3QxN3tmaWxsOiMyNjI2MjY7c3Ryb2tlOiNGRkZGRkY7c3Ryb2tlLXdpZHRoOjQ7c3Ryb2tlLW1pdGVybGltaXQ6MTA7fSYjeGE7CS5zdDE4e2ZpbGw6I0ZGRkZGRjtzdHJva2U6I0ZGRkZGRjtzdHJva2Utd2lkdGg6NDtzdHJva2UtbGluZWNhcDpyb3VuZDtzdHJva2UtbGluZWpvaW46cm91bmQ7fSYjeGE7PC9zdHlsZT4mI3hhOzxyZWN0IGhlaWdodD0iMTIwIiB3aWR0aD0iMTIwIiBjbGFzcz0ic3QwIi8+JiN4YTs8Zz4mI3hhOwk8cGF0aCBkPSJNMTAwLDkxLjFIMjBIMTAweiBNODkuMSwzMi41YzAtMC41LDAtMS0wLjItMS40Yy0wLjItMC41LTAuNC0wLjktMC44LTEuMmMtMC4zLTAuMy0wLjgtMC42LTEuMi0wLjgmIzEwOyYjOTsmIzk7Yy0wLjUtMC4yLTAuOS0wLjItMS40LTAuMkgzNC42Yy0wLjUsMC0xLDAtMS40LDAuMmMtMC41LDAuMi0wLjksMC40LTEuMiwwLjhjLTAuMywwLjMtMC42LDAuOC0wLjgsMS4yYy0wLjIsMC41LTAuMiwwLjktMC4yLDEuNCYjMTA7JiM5OyYjOTtWNzZoNTguMlYzMi41eiIgY2xhc3M9InN0NCIvPiYjeGE7PC9nPiYjeGE7PC9zdmc+;" vertex="1" parent="1">
          <mxGeometry x="1000.0" y="275.0" width="75" height="75" as="geometry" />
      </mxCell>
    </object><object id="link_id:link:leaf1:e1-1:spine1:e1-1" label="" source="leaf1" target="spine1">
      <mxCell style="endArrow=none;jumpStyle=gap;entryY=0;exitY=1;entryX=0.5;exitX=0.5;" edge="1" parent="1" source="leaf1" target="spine1">
          <mxGeometry relative="1" as="geometry" />
      </mxCell>
    </object><object id="label:leaf1:e1-1" label="e1-1">
      <mxCell style="rounded=1;whiteSpace=wrap;html=1;fontFamily=Google Sans;fontSource=https%3A%2F%2Ffonts.googleapis.com%2Fcss%3Ffamily%3DGoogle%2BSans;arcSize=32;spacing=0;spacingBottom=1;fillColor=#f5f5f5;fontColor=#333333;strokeColor=#98A2AE;fontSize=8;horizontal=1;fontStyle=1" vertex="1" parent="1">
          <mxGeometry x="447.4309151648976" y="246.6609095970748" width="20" height="10" as="geometry" />
      </mxCell>
    </object><object id="label:spine1:e1-1" label="e1-1">
      <mxCell style="rounded=1;whiteSpace=wrap;html=1;fontFamily=Google Sans;fontSource=https%3A%2F%2Ffonts.googleapis.com%2Fcss%3Ffamily%3DGoogle%2BSans;arcSize=32;spacing=0;spacingBottom=1;fillColor=#f5f5f5;fontColor=#333333;strokeColor=#98A2AE;fontSize=8;horizontal=1;fontStyle=1" vertex="1" parent="1">
          <mxGeometry x="707.5690848351024" y="268.3390904029252" width="20" height="10" as="geometry" />
      </mxCell>
    </object><object id="link_id:link:leaf1:e1-2:spine2:e1-1" label="" source="leaf1" target="spine2">
      <mxCell style="endArrow=none;jumpStyle=gap;entryY=0.5;exitY=0.5;entryX=0;exitX=1;" edge="1" parent="1" source="leaf1" target="spine2">
          <mxGeometry relative="1" as="geometry" />
      </mxCell>
    </object><object id="label:leaf1:e1-2" label="e1-2">
      <mxCell style="rounded=1;whiteSpace=wrap;html=1;fontFamily=Google Sans;fontSource=https%3A%2F%2Ffonts.googleapis.com%2Fcss%3Ffamily%3DGoogle%2BSans;arcSize=32;spacing=0;spacingBottom=1;fillColor=#f5f5f5;fontColor=#333333;strokeColor=#98A2AE;fontSize=8;horizontal=1;fontStyle=1" vertex="1" parent="1">
          <mxGeometry x="485.0" y="207.5" width="20" height="10" as="geometry" />
      </mxCell>
    </object><object id="label:spine2:e1-1" label="e1-1">
      <mxCell style="rounded=1;whiteSpace=wrap;html=1;fontFamily=Google Sans;fontSource=https%3A%2F%2Ffonts.googleapis.com%2Fcss%3Ffamily%3DGoogle%2BSans;arcSize=32;spacing=0;spacingBottom=1;fillColor=#f5f5f5;fontColor=#333333;strokeColor=#98A2AE;fontSize=8;horizontal=1;fontStyle=1" vertex="1" parent="1">
          <mxGeometry x="520.0" y="207.5" width="20" height="10" as="geometry" />
      </mxCell>
    </object><object id="link_id:link:leaf2:e1-1:spine1:e1-2" label="" source="leaf2" target="spine1">
      <mxCell style="endArrow=none;jumpStyle=gap;entryY=0.5;exitY=0.5;entryX=1;exitX=0;" edge="1" parent="1" source="leaf2" target="spine1">
          <mxGeometry relative="1" as="geometry" />
      </mxCell>
    </object><object id="label:leaf2:e1-1" label="e1-1">
      <mxCell style="rounded=1;whiteSpace=wrap;html=1;fontFamily=Google Sans;fontSource=https%3A%2F%2Ffonts.googleapis.com%2Fcss%3Ffamily%3DGoogle%2BSans;arcSize=32;spacing=0;spacingBottom=1;fillColor=#f5f5f5;fontColor=#333333;strokeColor=#98A2AE;fontSize=8;horizontal=1;fontStyle=1" vertex="1" parent="1">
          <mxGeometry x="820.0" y="307.5" width="20" height="10" as="geometry" />
      </mxCell>
    </object><object id="label:spine1:e1-2" label="e1-2">
      <mxCell style="rounded=1;whiteSpace=wrap;html=1;fontFamily=Google Sans;fontSource=https%3A%2F%2Ffonts.googleapis.com%2Fcss%3Ffamily%3DGoogle%2BSans;arcSize=32;spacing=0;spacingBottom=1;fillColor=#f5f5f5;fontColor=#333333;strokeColor=#98A2AE;fontSize=8;horizontal=1;fontStyle=1" vertex="1" parent="1">
          <mxGeometry x="785.0" y="307.5" width="20" height="10" as="geometry" />
      </mxCell>
    </object><object id="link_id:link:leaf2:e1-2:spine2:e1-2" label="" source="leaf2" target="spine2">
      <mxCell style="endArrow=none;jumpStyle=gap;entryY=1;exitY=0;entryX=0.5;exitX=0.5;" edge="1" parent="1" source="leaf2" target="spine2">
          <mxGeometry relative="1" as="geometry" />
      </mxCell>
    </object><object id="label:leaf2:e1-2" label="e1-2">
      <mxCell style="rounded=1;whiteSpace=wrap;html=1;fontFamily=Google Sans;fontSource=https%3A%2F%2Ffonts.googleapis.com%2Fcss%3Ffamily%3DGoogle%2BSans;arcSize=32;spacing=0;spacingBottom=1;fillColor=#f5f5f5;fontColor=#333333;strokeColor=#98A2AE;fontSize=8;horizontal=1;fontStyle=1" vertex="1" parent="1">
          <mxGeometry x="857.5690848351024" y="268.3390904029252" width="20" height="10" as="geometry" />
      </mxCell>
    </object><object id="label:spine2:e1-2" label="e1-2">
      <mxCell style="rounded=1;whiteSpace=wrap;html=1;fontFamily=Google Sans;fontSource=https%3A%2F%2Ffonts.googleapis.com%2Fcss%3Ffamily%3DGoogle%2BSans;arcSize=32;spacing=0;spacingBottom=1;fillColor=#f5f5f5;fontColor=#333333;strokeColor=#98A2AE;fontSize=8;horizontal=1;fontStyle=1" vertex="1" parent="1">
          <mxGeometry x="597.4309151648976" y="246.6609095970748" width="20" height="10" as="geometry" />
      </mxCell>
    </object><object id="link_id:link:leaf3:eth1:spine1:e1-3" label="" source="leaf3" target="spine1">
      <mxCell style="endArrow=none;jumpStyle=gap;entryY=0;exitY=1;entryX=0.5;exitX=0.5;" edge="1" parent="1" source="leaf3" target="spine1">
          <mxGeometry relative="1" as="geometry" />
      </mxCell>
    </object><object id="label:leaf3:eth1" label="eth1">
      <mxCell style="rounded=1;whiteSpace=wrap;html=1;fontFamily=Google Sans;fontSource=https%3A%2F%2Ffonts.googleapis.com%2Fcss%3Ffamily%3DGoogle%2BSans;arcSize=32;spacing=0;spacingBottom=1;fillColor=#f5f5f5;fontColor=#333333;strokeColor=#98A2AE;fontSize=8;horizontal=1;fontStyle=1" vertex="1" parent="1">
          <mxGeometry x="520.7762309724052" y="178.12276932106894" width="20" height="10" as="geometry" />
      </mxCell>
    </object><object id="label:spine1:e1-3" label="e1-3">
      <mxCell style="rounded=1;whiteSpace=wrap;html=1;fontFamily=Google Sans;fontSource=https%3A%2F%2Ffonts.googleapis.com%2Fcss%3Ffamily%3DGoogle%2BSans;arcSize=32;spacing=0;spacingBottom=1;fillColor=#f5f5f5;fontColor=#333333;strokeColor=#98A2AE;fontSize=8;horizontal=1;fontStyle=1" vertex="1" parent="1">
          <mxGeometry x="709.2237690275948" y="261.877230678931" width="20" height="10" as="geometry" />
      </mxCell>
    </object><object id="link_id:link:leaf3:eth2:spine2:e1-3" label="" source="leaf3" target="spine2">
      <mxCell style="endArrow=none;jumpStyle=gap;entryY=0.5;exitY=0.5;entryX=0;exitX=1;" edge="1" parent="1" source="leaf3" target="spine2">
          <mxGeometry relative="1" as="geometry" />
      </mxCell>
    </object><object id="label:leaf3:eth2" label="eth2">
      <mxCell style="rounded=1;whiteSpace=wrap;html=1;fontFamily=Google Sans;fontSource=https%3A%2F%2Ffonts.googleapis.com%2Fcss%3Ffamily%3DGoogle%2BSans;arcSize=32;spacing=0;spacingBottom=1;fillColor=#f5f5f5;fontColor=#333333;strokeColor=#98A2AE;fontSize=8;horizontal=1;fontStyle=1" vertex="1" parent="1">
          <mxGeometry x="540.0" y="152.5" width="20" height="10" as="geometry" />
      </mxCell>
    </object><object id="label:spine2:e1-3" label="e1-3">
      <mxCell style="rounded=1;whiteSpace=wrap;html=1;fontFamily=Google Sans;fontSource=https%3A%2F%2Ffonts.googleapis.com%2Fcss%3Ffamily%3DGoogle%2BSans;arcSize=32;spacing=0;spacingBottom=1;fillColor=#f5f5f5;fontColor=#333333;strokeColor=#98A2AE;fontSize=8;horizontal=1;fontStyle=1" vertex="1" parent="1">
          <mxGeometry x="540.0" y="187.5" width="20" height="10" as="geometry" />
      </mxCell>
    </object><object id="link_id:link:leaf3:eth10:client5:eth1" label="" source="leaf3" target="client5">
      <mxCell style="endArrow=none;jumpStyle=gap;entryY=0;exitY=1;entryX=0.5;exitX=0.5;" edge="1" parent="1" source="leaf3" target="client5">
          <mxGeometry relative="1" as="geometry" />
      </mxCell>
    </object><object id="label:leaf3:eth10" label="eth10">
      <mxCell style="rounded=1;whiteSpace=wrap;html=1;fontFamily=Google Sans;fontSource=https%3A%2F%2Ffonts.googleapis.com%2Fcss%3Ffamily%3DGoogle%2BSans;arcSize=32;spacing=0;spacingBottom=1;fillColor=#f5f5f5;fontColor=#333333;strokeColor=#98A2AE;fontSize=8;horizontal=1;fontStyle=1" vertex="1" parent="1">
          <mxGeometry x="483.17530120797505" y="175.15325301120666" width="20" height="10" as="geometry" />
      </mxCell>
    </object><object id="label:client5:eth1" label="eth1">
      <mxCell style="rounded=1;whiteSpace=wrap;html=1;fontFamily=Google Sans;fontSource=https%3A%2F%2Ffonts.googleapis.com%2Fcss%3Ffamily%3DGoogle%2BSans;arcSize=32;spacing=0;spacingBottom=1;fillColor=#f5f5f5;fontColor=#333333;strokeColor=#98A2AE;fontSize=8;horizontal=1;fontStyle=1" vertex="1" parent="1">
          <mxGeometry x="146.82469879202492" y="264.84674698879337" width="20" height="10" as="geometry" />
      </mxCell>
    </object><object id="link_id:link:leaf3:eth3:leaf4:eth3" label="" source="leaf3" target="leaf4">
      <mxCell style="endArrow=none;jumpStyle=gap;entryY=0;exitY=1;entryX=0.5;exitX=0.5;" edge="1" parent="1" source="leaf3" target="leaf4">
          <mxGeometry relative="1" as="geometry" />
      </mxCell>
    </object><object id="label:leaf3:eth3" label="eth3">
      <mxCell style="rounded=1;whiteSpace=wrap;html=1;fontFamily=Google Sans;fontSource=https%3A%2F%2Ffonts.googleapis.com%2Fcss%3Ffamily%3DGoogle%2BSans;arcSize=32;spacing=0;spacingBottom=1;fillColor=#f5f5f5;fontColor=#333333;strokeColor=#98A2AE;fontSize=8;horizontal=1;fontStyle=1" vertex="1" parent="1">
          <mxGeometry x="484.22376902759487" y="178.12276932106894" width="20" height="10" as="geometry" />
      </mxCell>
    </object><object id="label:leaf4:eth3" label="eth3">
      <mxCell style="rounded=1;whiteSpace=wrap;html=1;fontFamily=Google Sans;fontSource=https%3A%2F%2Ffonts.googleapis.com%2Fcss%3Ffamily%3DGoogle%2BSans;arcSize=32;spacing=0;spacingBottom=1;fillColor=#f5f5f5;fontColor=#333333;strokeColor=#98A2AE;fontSize=8;horizontal=1;fontStyle=1" vertex="1" parent="1">
          <mxGeometry x="295.77623097240513" y="261.877230678931" width="20" height="10" as="geometry" />
      </mxCell>
    </object><object id="link_id:link:leaf3:eth4:leaf4:eth4" label="" source="leaf3" target="leaf4">
      <mxCell style="endArrow=none;jumpStyle=gap;entryY=0;exitY=1;entryX=0.5;exitX=0.5;" edge="1" parent="1" source="leaf3" target="leaf4">
          <mxGeometry relative="1" as="geometry" />
      </mxCell>
    </object><object id="label:leaf3:eth4" label="eth4">
      <mxCell style="rounded=1;whiteSpace=wrap;html=1;fontFamily=Google Sans;fontSource=https%3A%2F%2Ffonts.googleapis.com%2Fcss%3Ffamily%3DGoogle%2BSans;arcSize=32;spacing=0;spacingBottom=1;fillColor=#f5f5f5;fontColor=#333333;strokeColor=#98A2AE;fontSize=8;horizontal=1;fontStyle=1" vertex="1" parent="1">
          <mxGeometry x="484.22376902759487" y="178.12276932106894" width="20" height="10" as="geometry" />
      </mxCell>
    </object><object id="label:leaf4:eth4" label="eth4">
      <mxCell style="rounded=1;whiteSpace=wrap;html=1;fontFamily=Google Sans;fontSource=https%3A%2F%2Ffonts.googleapis.com%2Fcss%3Ffamily%3DGoogle%2BSans;arcSize=32;spacing=0;spacingBottom=1;fillColor=#f5f5f5;fontColor=#333333;strokeColor=#98A2AE;fontSize=8;horizontal=1;fontStyle=1" vertex="1" parent="1">
          <mxGeometry x="295.77623097240513" y="261.877230678931" width="20" height="10" as="geometry" />
      </mxCell>
    </object><object id="link_id:link:leaf3:eth5:leaf4:eth5" label="" source="leaf3" target="leaf4">
      <mxCell style="endArrow=none;jumpStyle=gap;entryY=0;exitY=1;entryX=0.5;exitX=0.5;" edge="1" parent="1" source="leaf3" target="leaf4">
          <mxGeometry relative="1" as="geometry" />
      </mxCell>
    </object><object id="label:leaf3:eth5" label="eth5">
      <mxCell style="rounded=1;whiteSpace=wrap;html=1;fontFamily=Google Sans;fontSource=https%3A%2F%2Ffonts.googleapis.com%2Fcss%3Ffamily%3DGoogle%2BSans;arcSize=32;spacing=0;spacingBottom=1;fillColor=#f5f5f5;fontColor=#333333;strokeColor=#98A2AE;fontSize=8;horizontal=1;fontStyle=1" vertex="1" parent="1">
          <mxGeometry x="484.22376902759487" y="178.12276932106894" width="20" height="10" as="geometry" />
      </mxCell>
    </object><object id="label:leaf4:eth5" label="eth5">
      <mxCell style="rounded=1;whiteSpace=wrap;html=1;fontFamily=Google Sans;fontSource=https%3A%2F%2Ffonts.googleapis.com%2Fcss%3Ffamily%3DGoogle%2BSans;arcSize=32;spacing=0;spacingBottom=1;fillColor=#f5f5f5;fontColor=#333333;strokeColor=#98A2AE;fontSize=8;horizontal=1;fontStyle=1" vertex="1" parent="1">
          <mxGeometry x="295.77623097240513" y="261.877230678931" width="20" height="10" as="geometry" />
      </mxCell>
    </object><object id="link_id:link:leaf4:eth1:spine1:e1-4" label="" source="leaf4" target="spine1">
      <mxCell style="endArrow=none;jumpStyle=gap;entryY=0.5;exitY=0.5;entryX=0;exitX=1;" edge="1" parent="1" source="leaf4" target="spine1">
          <mxGeometry relative="1" as="geometry" />
      </mxCell>
    </object><object id="label:leaf4:eth1" label="eth1">
      <mxCell style="rounded=1;whiteSpace=wrap;html=1;fontFamily=Google Sans;fontSource=https%3A%2F%2Ffonts.googleapis.com%2Fcss%3Ffamily%3DGoogle%2BSans;arcSize=32;spacing=0;spacingBottom=1;fillColor=#f5f5f5;fontColor=#333333;strokeColor=#98A2AE;fontSize=8;horizontal=1;fontStyle=1" vertex="1" parent="1">
          <mxGeometry x="335.0" y="307.5" width="20" height="10" as="geometry" />
      </mxCell>
    </object><object id="label:spine1:e1-4" label="e1-4">
      <mxCell style="rounded=1;whiteSpace=wrap;html=1;fontFamily=Google Sans;fontSource=https%3A%2F%2Ffonts.googleapis.com%2Fcss%3Ffamily%3DGoogle%2BSans;arcSize=32;spacing=0;spacingBottom=1;fillColor=#f5f5f5;fontColor=#333333;strokeColor=#98A2AE;fontSize=8;horizontal=1;fontStyle=1" vertex="1" parent="1">
          <mxGeometry x="670.0" y="307.5" width="20" height="10" as="geometry" />
      </mxCell>
    </object><object id="link_id:link:leaf4:eth2:spine2:e1-4" label="" source="leaf4" target="spine2">
      <mxCell style="endArrow=none;jumpStyle=gap;entryY=1;exitY=0;entryX=0.5;exitX=0.5;" edge="1" parent="1" source="leaf4" target="spine2">
          <mxGeometry relative="1" as="geometry" />
      </mxCell>
    </object><object id="label:leaf4:eth2" label="eth2">
      <mxCell style="rounded=1;whiteSpace=wrap;html=1;fontFamily=Google Sans;fontSource=https%3A%2F%2Ffonts.googleapis.com%2Fcss%3Ffamily%3DGoogle%2BSans;arcSize=32;spacing=0;spacingBottom=1;fillColor=#f5f5f5;fontColor=#333333;strokeColor=#98A2AE;fontSize=8;horizontal=1;fontStyle=1" vertex="1" parent="1">
          <mxGeometry x="297.4309151648976" y="268.3390904029252" width="20" height="10" as="geometry" />
      </mxCell>
    </object><object id="label:spine2:e1-4" label="e1-4">
      <mxCell style="rounded=1;whiteSpace=wrap;html=1;fontFamily=Google Sans;fontSource=https%3A%2F%2Ffonts.googleapis.com%2Fcss%3Ffamily%3DGoogle%2BSans;arcSize=32;spacing=0;spacingBottom=1;fillColor=#f5f5f5;fontColor=#333333;strokeColor=#98A2AE;fontSize=8;horizontal=1;fontStyle=1" vertex="1" parent="1">
          <mxGeometry x="557.5690848351024" y="246.6609095970748" width="20" height="10" as="geometry" />
      </mxCell>
    </object><object id="link_id:link:leaf4:eth10:client5:eth2" label="" source="leaf4" target="client5">
      <mxCell style="endArrow=none;jumpStyle=gap;entryY=0.5;exitY=0.5;entryX=1;exitX=0;" edge="1" parent="1" source="leaf4" target="client5">
          <mxGeometry relative="1" as="geometry" />
      </mxCell>
    </object><object id="label:leaf4:eth10" label="eth10">
      <mxCell style="rounded=1;whiteSpace=wrap;html=1;fontFamily=Google Sans;fontSource=https%3A%2F%2Ffonts.googleapis.com%2Fcss%3Ffamily%3DGoogle%2BSans;arcSize=32;spacing=0;spacingBottom=1;fillColor=#f5f5f5;fontColor=#333333;strokeColor=#98A2AE;fontSize=8;horizontal=1;fontStyle=1" vertex="1" parent="1">
          <mxGeometry x="220.0" y="307.5" width="20" height="10" as="geometry" />
      </mxCell>
    </object><object id="label:client5:eth2" label="eth2">
      <mxCell style="rounded=1;whiteSpace=wrap;html=1;fontFamily=Google Sans;fontSource=https%3A%2F%2Ffonts.googleapis.com%2Fcss%3Ffamily%3DGoogle%2BSans;arcSize=32;spacing=0;spacingBottom=1;fillColor=#f5f5f5;fontColor=#333333;strokeColor=#98A2AE;fontSize=8;horizontal=1;fontStyle=1" vertex="1" parent="1">
          <mxGeometry x="185.0" y="307.5" width="20" height="10" as="geometry" />
      </mxCell>
    </object><object id="link_id:link:leaf5:eth1:spine1:e1-5" label="" source="leaf5" target="spine1">
      <mxCell style="endArrow=none;jumpStyle=gap;entryY=0;exitY=1;entryX=0.5;exitX=0.5;" edge="1" parent="1" source="leaf5" target="spine1">
          <mxGeometry relative="1" as="geometry" />
      </mxCell>
    </object><object id="label:leaf5:eth1" label="eth1">
      <mxCell style="rounded=1;whiteSpace=wrap;html=1;fontFamily=Google Sans;fontSource=https%3A%2F%2Ffonts.googleapis.com%2Fcss%3Ffamily%3DGoogle%2BSans;arcSize=32;spacing=0;spacingBottom=1;fillColor=#f5f5f5;fontColor=#333333;strokeColor=#98A2AE;fontSize=8;horizontal=1;fontStyle=1" vertex="1" parent="1">
          <mxGeometry x="664.5" y="186.0" width="20" height="10" as="geometry" />
      </mxCell>
    </object><object id="label:spine1:e1-5" label="e1-5">
      <mxCell style="rounded=1;whiteSpace=wrap;html=1;fontFamily=Google Sans;fontSource=https%3A%2F%2Ffonts.googleapis.com%2Fcss%3Ffamily%3DGoogle%2BSans;arcSize=32;spacing=0;spacingBottom=1;fillColor=#f5f5f5;fontColor=#333333;strokeColor=#98A2AE;fontSize=8;horizontal=1;fontStyle=1" vertex="1" parent="1">
          <mxGeometry x="715.5" y="254.0" width="20" height="10" as="geometry" />
      </mxCell>
    </object><object id="link_id:link:leaf5:eth2:spine2:e1-5" label="" source="leaf5" target="spine2">
      <mxCell style="endArrow=none;jumpStyle=gap;entryY=0.5;exitY=0.5;entryX=1;exitX=0;" edge="1" parent="1" source="leaf5" target="spine2">
          <mxGeometry relative="1" as="geometry" />
      </mxCell>
    </object><object id="label:leaf5:eth2" label="eth2">
      <mxCell style="rounded=1;whiteSpace=wrap;html=1;fontFamily=Google Sans;fontSource=https%3A%2F%2Ffonts.googleapis.com%2Fcss%3Ffamily%3DGoogle%2BSans;arcSize=32;spacing=0;spacingBottom=1;fillColor=#f5f5f5;fontColor=#333333;strokeColor=#98A2AE;fontSize=8;horizontal=1;fontStyle=1" vertex="1" parent="1">
          <mxGeometry x="615.0" y="152.5" width="20" height="10" as="geometry" />
      </mxCell>
    </object><object id="label:spine2:e1-5" label="e1-5">
      <mxCell style="rounded=1;whiteSpace=wrap;html=1;fontFamily=Google Sans;fontSource=https%3A%2F%2Ffonts.googleapis.com%2Fcss%3Ffamily%3DGoogle%2BSans;arcSize=32;spacing=0;spacingBottom=1;fillColor=#f5f5f5;fontColor=#333333;strokeColor=#98A2AE;fontSize=8;horizontal=1;fontStyle=1" vertex="1" parent="1">
          <mxGeometry x="615.0" y="187.5" width="20" height="10" as="geometry" />
      </mxCell>
    </object><object id="link_id:link:leaf5:eth10:client6:eth1" label="" source="leaf5" target="client6">
      <mxCell style="endArrow=none;jumpStyle=gap;entryY=0;exitY=1;entryX=0.5;exitX=0.5;" edge="1" parent="1" source="leaf5" target="client6">
          <mxGeometry relative="1" as="geometry" />
      </mxCell>
    </object><object id="label:leaf5:eth10" label="eth10">
      <mxCell style="rounded=1;whiteSpace=wrap;html=1;fontFamily=Google Sans;fontSource=https%3A%2F%2Ffonts.googleapis.com%2Fcss%3Ffamily%3DGoogle%2BSans;arcSize=32;spacing=0;spacingBottom=1;fillColor=#f5f5f5;fontColor=#333333;strokeColor=#98A2AE;fontSize=8;horizontal=1;fontStyle=1" vertex="1" parent="1">
          <mxGeometry x="671.824698792025" y="175.15325301120666" width="20" height="10" as="geometry" />
      </mxCell>
    </object><object id="label:client6:eth1" label="eth1">
      <mxCell style="rounded=1;whiteSpace=wrap;html=1;fontFamily=Google Sans;fontSource=https%3A%2F%2Ffonts.googleapis.com%2Fcss%3Ffamily%3DGoogle%2BSans;arcSize=32;spacing=0;spacingBottom=1;fillColor=#f5f5f5;fontColor=#333333;strokeColor=#98A2AE;fontSize=8;horizontal=1;fontStyle=1" vertex="1" parent="1">
          <mxGeometry x="1008.175301207975" y="264.84674698879337" width="20" height="10" as="geometry" />
      </mxCell>
    </object><object id="link_id:link:client1:eth1:leaf1:e1-10" label="" source="client1" target="leaf1">
      <mxCell style="endArrow=none;jumpStyle=gap;entryY=0.5;exitY=0.5;entryX=0;exitX=1;" edge="1" parent="1" source="client1" target="leaf1">
          <mxGeometry relative="1" as="geometry" />
      </mxCell>
    </object><object id="label:client1:eth1" label="eth1">
      <mxCell style="rounded=1;whiteSpace=wrap;html=1;fontFamily=Google Sans;fontSource=https%3A%2F%2Ffonts.googleapis.com%2Fcss%3Ffamily%3DGoogle%2BSans;arcSize=32;spacing=0;spacingBottom=1;fillColor=#f5f5f5;fontColor=#333333;strokeColor=#98A2AE;fontSize=8;horizontal=1;fontStyle=1" vertex="1" parent="1">
          <mxGeometry x="390.0" y="152.5" width="20" height="10" as="geometry" />
      </mxCell>
    </object><object id="label:leaf1:e1-10" label="e1-10">
      <mxCell style="rounded=1;whiteSpace=wrap;html=1;fontFamily=Google Sans;fontSource=https%3A%2F%2Ffonts.googleapis.com%2Fcss%3Ffamily%3DGoogle%2BSans;arcSize=32;spacing=0;spacingBottom=1;fillColor=#f5f5f5;fontColor=#333333;strokeColor=#98A2AE;fontSize=8;horizontal=1;fontStyle=1" vertex="1" parent="1">
          <mxGeometry x="390.0" y="187.5" width="20" height="10" as="geometry" />
      </mxCell>
    </object><object id="link_id:link:client2:eth1:leaf1:e1-11" label="" source="client2" target="leaf1">
      <mxCell style="endArrow=none;jumpStyle=gap;entryY=0.5;exitY=0.5;entryX=0;exitX=1;" edge="1" parent="1" source="client2" target="leaf1">
          <mxGeometry relative="1" as="geometry" />
      </mxCell>
    </object><object id="label:client2:eth1" label="eth1">
      <mxCell style="rounded=1;whiteSpace=wrap;html=1;fontFamily=Google Sans;fontSource=https%3A%2F%2Ffonts.googleapis.com%2Fcss%3Ffamily%3DGoogle%2BSans;arcSize=32;spacing=0;spacingBottom=1;fillColor=#f5f5f5;fontColor=#333333;strokeColor=#98A2AE;fontSize=8;horizontal=1;fontStyle=1" vertex="1" parent="1">
          <mxGeometry x="257.8885438199983" y="141.44427190999915" width="20" height="10" as="geometry" />
      </mxCell>
    </object><object id="label:leaf1:e1-11" label="e1-11">
      <mxCell style="rounded=1;whiteSpace=wrap;html=1;fontFamily=Google Sans;fontSource=https%3A%2F%2Ffonts.googleapis.com%2Fcss%3Ffamily%3DGoogle%2BSans;arcSize=32;spacing=0;spacingBottom=1;fillColor=#f5f5f5;fontColor=#333333;strokeColor=#98A2AE;fontSize=8;horizontal=1;fontStyle=1" vertex="1" parent="1">
          <mxGeometry x="372.1114561800017" y="198.55572809000085" width="20" height="10" as="geometry" />
      </mxCell>
    </object><object id="link_id:link:client3:eth1:leaf2:e1-10" label="" source="client3" target="leaf2">
      <mxCell style="endArrow=none;jumpStyle=gap;entryY=0;exitY=1;entryX=0.5;exitX=0.5;" edge="1" parent="1" source="client3" target="leaf2">
          <mxGeometry relative="1" as="geometry" />
      </mxCell>
    </object><object id="label:client3:eth1" label="eth1">
      <mxCell style="rounded=1;whiteSpace=wrap;html=1;fontFamily=Google Sans;fontSource=https%3A%2F%2Ffonts.googleapis.com%2Fcss%3Ffamily%3DGoogle%2BSans;arcSize=32;spacing=0;spacingBottom=1;fillColor=#f5f5f5;fontColor=#333333;strokeColor=#98A2AE;fontSize=8;horizontal=1;fontStyle=1" vertex="1" parent="1">
          <mxGeometry x="814.5" y="186.0" width="20" height="10" as="geometry" />
      </mxCell>
    </object><object id="label:leaf2:e1-10" label="e1-10">
      <mxCell style="rounded=1;whiteSpace=wrap;html=1;fontFamily=Google Sans;fontSource=https%3A%2F%2Ffonts.googleapis.com%2Fcss%3Ffamily%3DGoogle%2BSans;arcSize=32;spacing=0;spacingBottom=1;fillColor=#f5f5f5;fontColor=#333333;strokeColor=#98A2AE;fontSize=8;horizontal=1;fontStyle=1" vertex="1" parent="1">
          <mxGeometry x="865.5" y="254.0" width="20" height="10" as="geometry" />
      </mxCell>
    </object><object id="link_id:link:client4:eth1:leaf2:e1-11" label="" source="client4" target="leaf2">
      <mxCell style="endArrow=none;jumpStyle=gap;entryY=0;exitY=1;entryX=0.5;exitX=0.5;" edge="1" parent="1" source="client4" target="leaf2">
          <mxGeometry relative="1" as="geometry" />
      </mxCell>
    </object><object id="label:client4:eth1" label="eth1">
      <mxCell style="rounded=1;whiteSpace=wrap;html=1;fontFamily=Google Sans;fontSource=https%3A%2F%2Ffonts.googleapis.com%2Fcss%3Ffamily%3DGoogle%2BSans;arcSize=32;spacing=0;spacingBottom=1;fillColor=#f5f5f5;fontColor=#333333;strokeColor=#98A2AE;fontSize=8;horizontal=1;fontStyle=1" vertex="1" parent="1">
          <mxGeometry x="940.5" y="186.0" width="20" height="10" as="geometry" />
      </mxCell>
    </object><object id="label:leaf2:e1-11" label="e1-11">
      <mxCell style="rounded=1;whiteSpace=wrap;html=1;fontFamily=Google Sans;fontSource=https%3A%2F%2Ffonts.googleapis.com%2Fcss%3Ffamily%3DGoogle%2BSans;arcSize=32;spacing=0;spacingBottom=1;fillColor=#f5f5f5;fontColor=#333333;strokeColor=#98A2AE;fontSize=8;horizontal=1;fontStyle=1" vertex="1" parent="1">
          <mxGeometry x="889.5" y="254.0" width="20" height="10" as="geometry" />
      </mxCell>
    </object></root>
          </mxGraphModel>
        </diagram></mxfile>